<?xml version="1.0" encoding="UTF-8"?>
<svg version="1.1" xmlns="http://www.w3.org/2000/svg" width="351" height="351">
<path d="M0 0 C3.58886542 0.65696326 4.61187219 2.23503883 6.89453125 5.03515625 C10.26414331 9.00269284 13.68860525 12.44976314 17.65234375 15.80859375 C19.69716164 17.57193873 21.64968841 19.39937588 23.58203125 21.28515625 C24.15953125 21.84847656 24.73703125 22.41179687 25.33203125 22.9921875 C26.58203125 24.47265625 26.58203125 24.47265625 26.58203125 26.47265625 C27.24203125 26.47265625 27.90203125 26.47265625 28.58203125 26.47265625 C28.58203125 27.13265625 28.58203125 27.79265625 28.58203125 28.47265625 C29.24203125 28.47265625 29.90203125 28.47265625 30.58203125 28.47265625 C31.93585274 29.9600386 33.21343011 31.51696176 34.45703125 33.09765625 C37.03214898 36.32990131 39.60293804 39.53109677 42.3515625 42.6171875 C66.15094141 69.36676923 90.25606179 105.90290657 89.79296875 143.04296875 C88.4395228 165.04899731 79.16769039 184.86012529 63.58203125 200.47265625 C62.89625 201.17003906 62.21046875 201.86742187 61.50390625 202.5859375 C47.38419497 216.05195844 26.5673387 224.13062828 7.11328125 224.546875 C6.27796875 224.52238281 5.44265625 224.49789062 4.58203125 224.47265625 C4.5977417 225.1181543 4.61345215 225.76365234 4.62963867 226.42871094 C4.69208927 229.35993654 4.73105355 232.29102204 4.76953125 235.22265625 C4.79466797 236.2384375 4.81980469 237.25421875 4.84570312 238.30078125 C4.85537109 239.28046875 4.86503906 240.26015625 4.875 241.26953125 C4.89071045 242.17026367 4.9064209 243.07099609 4.92260742 243.99902344 C4.51964897 246.92574388 3.51649095 248.28606974 1.58203125 250.47265625 C-0.85546875 250.09765625 -0.85546875 250.09765625 -3.41796875 249.47265625 C-4.6965849 246.91542396 -4.53133484 245.10528523 -4.515625 242.24609375 C-4.51079102 240.69921875 -4.51079102 240.69921875 -4.50585938 239.12109375 C-4.49329102 237.50074219 -4.49329102 237.50074219 -4.48046875 235.84765625 C-4.47595703 234.7596875 -4.47144531 233.67171875 -4.46679688 232.55078125 C-4.45498651 229.85801836 -4.43851653 227.16536437 -4.41796875 224.47265625 C-5.53171875 224.38628906 -6.64546875 224.29992187 -7.79296875 224.2109375 C-27.76253842 222.4568239 -45.02696662 216.78104753 -60.41796875 203.47265625 C-61.17851563 202.8796875 -61.9390625 202.28671875 -62.72265625 201.67578125 C-69.64866218 196.06787334 -74.05464597 189.11201442 -78.41796875 181.47265625 C-78.75103027 180.89177246 -79.0840918 180.31088867 -79.42724609 179.71240234 C-89.86075311 161.14820862 -92.75222018 141.04989503 -87.23046875 120.41015625 C-86.35822975 117.40745197 -85.40837447 114.43821395 -84.41796875 111.47265625 C-84.05703125 110.33828125 -83.69609375 109.20390625 -83.32421875 108.03515625 C-76.95909612 89.84909159 -65.39729128 71.52359994 -53.41796875 56.47265625 C-52.59782274 55.40712311 -51.77893634 54.34061989 -50.9609375 53.2734375 C-45.85642004 46.64929618 -40.6083003 40.28711526 -34.90234375 34.16796875 C-32.97328996 32.07512738 -31.11334049 29.95646612 -29.26171875 27.796875 C-24.80244625 22.68062387 -19.98770149 17.93408743 -15.16796875 13.16015625 C-13.8221875 11.82114258 -13.8221875 11.82114258 -12.44921875 10.45507812 C-10.79510163 8.80962779 -9.13995324 7.16521298 -7.48339844 5.5222168 C-6.23099998 4.27944079 -4.99536795 3.01901267 -3.79272461 1.72802734 C-2.41796875 0.47265625 -2.41796875 0.47265625 0 0 Z " fill="#3B6679" transform="translate(175.41796875,51.52734375)"/>
<path d="M0 0 C21.78840759 20.64372676 38.98929887 55.81686736 41.203125 85.74609375 C41.44566022 99.6716579 38.75198807 116.27483537 30.625 127.98046875 C29 129 29 129 26.3125 128.6875 C25.1678125 128.3471875 25.1678125 128.3471875 24 128 C23.43152344 128.78503906 22.86304688 129.57007813 22.27734375 130.37890625 C9.28087307 148.06191727 -7.72887145 161.53744892 -30 165 C-34.98965829 165.52931835 -39.98670372 165.8013858 -45 166 C-43.39751926 162.04533993 -40.6708276 159.32599316 -37.6875 156.375 C-36.89061768 155.58440186 -36.89061768 155.58440186 -36.07763672 154.77783203 C-30.44683352 149.3020202 -24.34351703 144.61111381 -18 140 C-16.87624127 139.1693531 -15.75254381 138.3386233 -14.62890625 137.5078125 C-8.51610753 133.03195033 -2.27833459 128.88578623 4.1875 124.9375 C14.11572266 118.84334706 22.57934245 112.02161574 30 103 C30.66 102.34 31.32 101.68 32 101 C31.6814823 98.89179203 31.6814823 98.89179203 31 97 C29.68 97 28.36 97 27 97 C26.7525 97.556875 26.505 98.11375 26.25 98.6875 C23.3220256 104.10425265 19.24183584 107.64529281 14.4375 111.3125 C13.81689697 111.79178955 13.19629395 112.2710791 12.55688477 112.76489258 C10.71063579 114.18473749 8.85685557 115.59406586 7 117 C6.0409375 117.72960937 5.081875 118.45921875 4.09375 119.2109375 C-0.49173425 122.62307725 -5.14243374 125.71601082 -10.0625 128.625 C-21.8318977 135.75413337 -33.15620695 144.36094013 -42.46875 154.5234375 C-44 156 -44 156 -46 156 C-46 146.1 -46 136.2 -46 126 C-36.5625 120.9375 -36.5625 120.9375 -33.64672852 119.39038086 C-27.60894491 116.10874906 -22.32421657 112.32889819 -17 108 C-15.65615234 107.00419922 -15.65615234 107.00419922 -14.28515625 105.98828125 C4.0047925 92.19849564 15.14409438 71.32650248 19 49 C19.46145643 45.00369772 19.79009984 41.0170547 20 37 C18.02 37 16.04 37 14 37 C14.04640625 37.680625 14.0928125 38.36125 14.140625 39.0625 C14.88640921 59.092133 6.45273312 77.49425741 -7 92 C-7.84820312 92.96292969 -8.69640625 93.92585938 -9.5703125 94.91796875 C-18.41273303 104.60566686 -29.97359442 112.70193013 -42 118 C-42.99 118 -43.98 118 -45 118 C-45.2288938 111.57776713 -45.38608357 105.15659079 -45.49438477 98.73120117 C-45.53954401 96.54753317 -45.60088905 94.36413582 -45.67895508 92.18139648 C-45.78861657 89.03561668 -45.8392668 85.89344114 -45.87890625 82.74609375 C-45.92535782 81.7760289 -45.97180939 80.80596405 -46.01966858 79.8065033 C-46.02277968 75.59405138 -45.958324 73.0436021 -43.03440857 69.85949707 C-40.75947936 68.0839005 -38.44520562 66.52872626 -36 65 C-22.65532595 53.80769273 -12.04061375 40.9301712 -4.5625 25.1875 C-4.2325 24.49462891 -3.9025 23.80175781 -3.5625 23.08789062 C-0.23974875 15.80981414 2.63654671 7.90964012 0 0 Z " fill="#B0C7C7" transform="translate(224,103)"/>
<path d="M0 0 C0.33 0 0.66 0 1 0 C1.0515625 0.66902344 1.103125 1.33804688 1.15625 2.02734375 C3.66335882 23.25229907 18.74897789 44.90859397 34.9140625 58.26953125 C38.34904515 61.11915169 41.60350545 64.17038423 44.8984375 67.1796875 C46.86723421 69.03676667 46.86723421 69.03676667 49 70 C49 85.18 49 100.36 49 116 C23.11912924 104.90819824 2.74527368 86.23740333 -8 60 C-10.96488502 51.76707291 -12.6431971 43.74167111 -13 35 C-14.32 34.67 -15.64 34.34 -17 34 C-18.42764752 55.29574212 -8.32619672 74.96091828 5 91 C17.38393116 105.04672964 32.34806022 113.67403011 49 122 C49 132.23 49 142.46 49 153 C45.27783337 149.80957146 41.64214781 146.689769 38.0625 143.375 C29.73357976 135.9699361 20.7437073 128.93680257 11 123.5 C-1.52759902 116.48726794 -16.94420411 106.08369384 -25 94 C-26.98 94.495 -26.98 94.495 -29 95 C-28.56101703 99.38982967 -25.62528311 101.82946479 -22.625 104.75 C-21.81687866 105.54506958 -21.81687866 105.54506958 -20.99243164 106.35620117 C-13.64670144 113.43962226 -5.31438848 118.87898016 3.3046875 124.28125 C9.672441 128.34184643 15.79133688 132.76876538 21.80078125 137.33984375 C23.49474996 138.61859455 25.20336619 139.87795793 26.91796875 141.12890625 C35.74616426 147.61022743 42.66889299 154.07151575 49 163 C25.97169913 162.66314985 6.59243765 154.80096877 -9.80078125 138.15625 C-16.47438601 130.97077686 -16.47438601 130.97077686 -18.53125 127.171875 C-19.0159375 126.45515625 -19.500625 125.7384375 -20 125 C-21.32 125 -22.64 125 -24 125 C-24.99 125.99 -24.99 125.99 -26 127 C-37.16131087 106.65255405 -40.68094176 86.1397556 -34.12011719 63.55395508 C-33.44017496 61.35949036 -32.72772584 59.17901909 -32 57 C-31.6390625 55.865625 -31.278125 54.73125 -30.90625 53.5625 C-24.50907797 35.28486563 -12.87357582 17.2225331 -1 2 C-0.67 1.34 -0.34 0.68 0 0 Z " fill="#B3CACA" transform="translate(123,106)"/>
<path d="M0 0 C0.99 0 1.98 0 3 0 C3.29390625 1.4540625 3.29390625 1.4540625 3.59375 2.9375 C8.90492276 27.39044726 24.07361013 48.8945109 44 64 C44.66 64.33 45.32 64.66 46 65 C46 47.18 46 29.36 46 11 C46.33 11 46.66 11 47 11 C47.01030746 11.65954681 47.02061493 12.31909363 47.03123474 12.99862671 C47.13915379 19.8439149 47.25376339 26.68906754 47.37231445 33.53417969 C47.41571022 36.09111707 47.4573818 38.64808431 47.49731445 41.20507812 C47.55490469 44.87378959 47.61863138 48.54235011 47.68359375 52.2109375 C47.70030624 53.35992523 47.71701874 54.50891296 47.73423767 55.69271851 C47.7641555 57.28414169 47.7641555 57.28414169 47.79467773 58.90771484 C47.81799416 60.31336197 47.81799416 60.31336197 47.84178162 61.74740601 C47.85779985 64.03513791 47.85779985 64.03513791 49 66 C49.66 66 50.32 66 51 66 C51 66.66 51 67.32 51 68 C52.485 68.495 52.485 68.495 54 69 C54 68.34 54 67.68 54 67 C53.34 66.67 52.68 66.34 52 66 C52 47.85 52 29.7 52 11 C52.33 11 52.66 11 53 11 C53.33 28.49 53.66 45.98 54 64 C70.6969639 49.82554782 70.6969639 49.82554782 83 32 C83.65696021 30.79642703 84.31740841 29.59475439 84.98046875 28.39453125 C89.94938696 19.19346154 92.93139262 10.23416283 95 0 C95.99 0 96.98 0 98 0 C100.55940444 3.83910667 100.15807394 5.62815579 99.59765625 10.06640625 C94.59731161 34.61058157 75.20828761 57.98026172 55 72 C54.34 72 53.68 72 53 72 C53 87.18 53 102.36 53 118 C68.66336062 110.16831969 80.38682414 102.70729554 92 90 C92.7528125 89.18789062 93.505625 88.37578125 94.28125 87.5390625 C106.29773667 73.62766832 111.31562282 55.06755766 112 37 C115.75 35.875 115.75 35.875 118 37 C119.53506337 59.5142628 109.44453387 79.18944458 95.44921875 96.078125 C83.60779134 109.55856802 68.93653693 118.03173154 53 126 C52.67 135.9 52.34 145.8 52 156 C58.1688212 150.60412288 58.1688212 150.60412288 64.25 145.125 C72.42013962 137.89650359 81.12238211 131.85263641 90.375 126.125 C98.73708074 120.94358801 106.43195112 115.27270898 114 109 C114.75023437 108.40316406 115.50046875 107.80632812 116.2734375 107.19140625 C119.12495272 104.87530211 121.15223922 102.76946632 123.1875 99.6875 C125 97 125 97 127.125 96 C127.74375 96 128.3625 96 129 96 C129.66 96.66 130.32 97.32 131 98 C130.6877093 101.47068523 129.22759474 103.10532929 126.75 105.4375 C126.16734375 105.99308594 125.5846875 106.54867187 124.984375 107.12109375 C124.32953125 107.74113281 123.6746875 108.36117187 123 109 C122.18917969 109.81726563 121.37835938 110.63453125 120.54296875 111.4765625 C113.17921415 118.78375984 105.08839413 124.30067595 96.3125 129.75 C86.55564336 135.82115275 77.68717367 142.49534513 69 150 C68.17113281 150.69996094 67.34226562 151.39992187 66.48828125 152.12109375 C58.80210405 158.28407048 58.80210405 158.28407048 53 166 C78.8837059 162.39213392 100.05938241 155.11828121 117 134 C118.734729 131.70254184 120.37911051 129.38068144 122 127 C123.65 127.33 125.3 127.66 127 128 C125.56920975 139.04888024 114.39624066 148.69464357 106.1015625 155.3125 C91.24636384 166.16963285 72.69508038 173.75627348 54 173 C54.01571045 173.64549805 54.0314209 174.29099609 54.04760742 174.95605469 C54.11005802 177.88728029 54.1490223 180.81836579 54.1875 183.75 C54.21263672 184.76578125 54.23777344 185.7815625 54.26367188 186.828125 C54.27333984 187.8078125 54.28300781 188.7875 54.29296875 189.796875 C54.3086792 190.69760742 54.32438965 191.59833984 54.34057617 192.52636719 C53.93761772 195.45308763 52.9344597 196.81341349 51 199 C48.5625 198.625 48.5625 198.625 46 198 C44.72138385 195.44276771 44.88663391 193.63262898 44.90234375 190.7734375 C44.90717773 189.2265625 44.90717773 189.2265625 44.91210938 187.6484375 C44.92467773 186.02808594 44.92467773 186.02808594 44.9375 184.375 C44.94201172 183.28703125 44.94652344 182.1990625 44.95117188 181.078125 C44.96298224 178.38536211 44.97945222 175.69270812 45 173 C43.88625 172.91363281 42.7725 172.82726562 41.625 172.73828125 C21.66830232 170.98529832 4.37092061 165.31977634 -11 152 C-11.77214844 151.38382813 -12.54429688 150.76765625 -13.33984375 150.1328125 C-19.42659659 145.11774435 -24.61325151 139.17951068 -28 132 C-27.7109375 129.13671875 -27.7109375 129.13671875 -27 127 C-23.58578513 127.27171952 -22.31408872 127.64403278 -20.0078125 130.2578125 C-19.07582031 131.67707031 -19.07582031 131.67707031 -18.125 133.125 C-7.46817544 148.46766393 8.87841255 158.90965575 27.01171875 163.4765625 C32.96097262 164.51865403 38.97100441 164.76404741 45 165 C37.25842203 156.28668297 29.75838426 148.48637063 20 142 C18.16193612 140.65226129 16.32864494 139.29799114 14.5 137.9375 C10.9456125 135.34974479 7.34646185 132.90324557 3.625 130.5625 C-7.57229905 123.50644953 -17.48517054 116.14559727 -27 107 C-27.69867188 106.37609375 -28.39734375 105.7521875 -29.1171875 105.109375 C-30.8125 103.5625 -30.8125 103.5625 -33 101 C-32.63671875 98.83984375 -32.63671875 98.83984375 -32 97 C-30.02 96.505 -30.02 96.505 -28 96 C-27.46632813 96.6290625 -26.93265625 97.258125 -26.3828125 97.90625 C-18.6729945 106.76320355 -9.94337601 113.39610734 -0.4375 120.1875 C0.25859375 120.68685059 0.9546875 121.18620117 1.671875 121.70068359 C5.19521231 124.18371094 8.71866678 126.43574153 12.5234375 128.46484375 C17.13294372 130.96561392 21.05452216 134.01154833 25.0625 137.375 C25.75569336 137.94790771 26.44888672 138.52081543 27.16308594 139.11108398 C33.31624752 144.21386469 39.34517284 149.34517284 45 155 C45.33 145.1 45.66 135.2 46 125 C44.02 124.505 44.02 124.505 42 124 C34.0479981 120.5253716 26.90695672 116.22748737 20 111 C19.18917969 110.39414063 18.37835938 109.78828125 17.54296875 109.1640625 C-1.57423587 94.41220382 -17.44012538 73.52358069 -21 49 C-21.20266499 44.98354834 -21.19226149 41.01612897 -21 37 C-19.125 36.375 -19.125 36.375 -17 36 C-14.20345749 38.79654251 -14.51635683 40.96941853 -14.125 44.875 C-13.28020114 51.97960608 -11.74502304 58.35589018 -9 65 C-8.62560791 65.90637207 -8.62560791 65.90637207 -8.24365234 66.83105469 C-3.37707046 78.27946552 3.39848049 87.08883675 12 96 C13.16595703 97.24523437 13.16595703 97.24523437 14.35546875 98.515625 C22.39750317 106.42955621 34.228862 114.40962067 45 118 C45.33 103.15 45.66 88.3 46 73 C44.02 72.01 44.02 72.01 42 71 C40.34008789 69.64306641 40.34008789 69.64306641 38.72265625 68.1015625 C38.12646484 67.53953125 37.53027344 66.9775 36.91601562 66.3984375 C35.99852539 65.52058594 35.99852539 65.52058594 35.0625 64.625 C30.36879846 60.1352528 30.36879846 60.1352528 25.38671875 55.9765625 C12.79447074 45.5482851 -0.19095818 24.47158804 -2.3671875 8.265625 C-2.4375 5.8125 -2.4375 5.8125 -2 2 C-1.34 1.34 -0.68 0.68 0 0 Z " fill="#3C677B" transform="translate(126,103)"/>
<path d="M0 0 C2 3 2 3 2.8828125 5.37109375 C7.12097022 15.34410124 18.99690076 26.99793384 28 33 C28.36076355 35.29055786 28.36076355 35.29055786 28.34057617 38.18408203 C28.34023628 39.80553635 28.34023628 39.80553635 28.33988953 41.45974731 C28.32440567 42.63060883 28.30892181 43.80147034 28.29296875 45.0078125 C28.28872391 46.20356903 28.28447906 47.39932556 28.28010559 48.63131714 C28.26326902 52.46277071 28.22560684 56.29370453 28.1875 60.125 C28.17245964 62.71744034 28.15877011 65.30988889 28.14648438 67.90234375 C28.11334918 74.26840748 28.0631003 80.63416662 28 87 C24.51875991 85.67299076 22.14882615 84.5263662 19.51171875 81.875 C18.89176025 81.25608887 18.27180176 80.63717773 17.63305664 79.99951172 C16.99102295 79.33967285 16.34898926 78.67983398 15.6875 78 C15.02032959 77.3208252 14.35315918 76.64165039 13.66577148 75.94189453 C0.28130748 62.17380459 -14.30668168 43.98629896 -15.125 23.9375 C-15.08375 23.298125 -15.0425 22.65875 -15 22 C-15.66 21.67 -16.32 21.34 -17 21 C-12.55157984 15.07830885 -7.84497188 9.50836785 -2.8203125 4.06640625 C-0.95891382 2.13086801 -0.95891382 2.13086801 0 0 Z " fill="#B9CFCD" transform="translate(144,81)"/>
<path d="M0 0 C7.40490154 5.56347099 13.12844894 13.16315699 18 21 C17.01 21 16.02 21 15 21 C14.99742187 21.54785156 14.99484375 22.09570312 14.9921875 22.66015625 C14.4472515 33.83134419 9.46004327 44.350441 3.4921875 53.65625 C1.89658099 56.06299704 1.89658099 56.06299704 0.51171875 59.0703125 C-2.53387232 64.43690378 -7.17196138 68.5807775 -11.53637695 72.87255859 C-13.07108113 74.38344797 -14.59179657 75.90746085 -16.11132812 77.43359375 C-23.58069573 84.86023191 -23.58069573 84.86023191 -27 86 C-27.22907027 78.4749637 -27.38616543 70.95083257 -27.49438477 63.4230957 C-27.53951665 60.86513677 -27.60083998 58.30740836 -27.67895508 55.75024414 C-27.78872144 52.06338569 -27.83929972 48.3796061 -27.87890625 44.69140625 C-27.92535782 43.55667374 -27.97180939 42.42194122 -28.01966858 41.25282288 C-28.02372002 34.81345986 -27.21933647 31.50014629 -22.61645508 26.84204102 C-21.1093683 25.52416639 -19.57391796 24.23728991 -18 23 C-14.0300356 19.86700815 -10.91478732 16.65945779 -7.875 12.625 C-7.44574219 12.07328125 -7.01648438 11.5215625 -6.57421875 10.953125 C-3.91999329 7.47404794 -1.84512518 3.9917414 0 0 Z " fill="#B8CECC" transform="translate(206,82)"/>
<path d="M0 0 C3.41421487 0.27171952 4.68591128 0.64403278 6.9921875 3.2578125 C7.61351563 4.20398438 8.23484375 5.15015625 8.875 6.125 C20.03650605 22.19425546 37.73125342 33.27930852 57 37 C62.31583079 37.81536627 67.65309255 38.42975266 73 39 C74.43088528 36.13822943 73.59991697 34.06624227 73 31 C73.99 30.67 74.98 30.34 76 30 C78.5625 32.25 78.5625 32.25 81 35 C80.65234375 37.171875 80.65234375 37.171875 80 39 C105.8837059 35.39213392 127.05938241 28.11828121 144 7 C145.734729 4.70254184 147.37911051 2.38068144 149 0 C150.65 0.33 152.3 0.66 154 1 C152.56920975 12.04888024 141.39624066 21.69464357 133.1015625 28.3125 C118.24636384 39.16963285 99.69508038 46.75627348 81 46 C81.01571045 46.64549805 81.0314209 47.29099609 81.04760742 47.95605469 C81.11005802 50.88728029 81.1490223 53.81836579 81.1875 56.75 C81.21263672 57.76578125 81.23777344 58.7815625 81.26367188 59.828125 C81.27333984 60.8078125 81.28300781 61.7875 81.29296875 62.796875 C81.3086792 63.69760742 81.32438965 64.59833984 81.34057617 65.52636719 C80.93761772 68.45308763 79.9344597 69.81341349 78 72 C75.5625 71.625 75.5625 71.625 73 71 C71.72138385 68.44276771 71.88663391 66.63262898 71.90234375 63.7734375 C71.90717773 62.2265625 71.90717773 62.2265625 71.91210938 60.6484375 C71.92467773 59.02808594 71.92467773 59.02808594 71.9375 57.375 C71.94201172 56.28703125 71.94652344 55.1990625 71.95117188 54.078125 C71.96298224 51.38536211 71.97945222 48.69270812 72 46 C70.88625 45.91363281 69.7725 45.82726562 68.625 45.73828125 C48.66830232 43.98529832 31.37092061 38.31977634 16 25 C15.22785156 24.38382813 14.45570312 23.76765625 13.66015625 23.1328125 C7.57340341 18.11774435 2.38674849 12.17951068 -1 5 C-0.7109375 2.13671875 -0.7109375 2.13671875 0 0 Z " fill="#527588" transform="translate(99,230)"/>
<path d="M0 0 C1.65 1.65 3.3 3.3 5 5 C6.27595797 6.21658906 7.55813266 7.42670552 8.84765625 8.62890625 C9.53537109 9.27150391 10.22308594 9.91410156 10.93164062 10.57617188 C11.63482422 11.23166016 12.33800781 11.88714844 13.0625 12.5625 C15.71429307 15.03541186 18.36062231 17.51384323 21 20 C22.23556641 21.15822266 22.23556641 21.15822266 23.49609375 22.33984375 C25 24 25 24 25 26 C25.66 26 26.32 26 27 26 C25.67738161 28.64523678 23.86446365 30.70553392 22 33 C21.39800781 33.76699219 20.79601562 34.53398438 20.17578125 35.32421875 C7.04638472 51.97680764 7.04638472 51.97680764 1 55 C0.67 36.85 0.34 18.7 0 0 Z " fill="#B7CDCB" transform="translate(177,52)"/>
<path d="M0 0 C0.66 0.33 1.32 0.66 2 1 C1.67 18.16 1.34 35.32 1 53 C-3.2956227 50.42262638 -6.13105952 48.02464854 -9.375 44.375 C-9.85106689 43.84592041 -10.32713379 43.31684082 -10.81762695 42.77172852 C-22 30.23196851 -22 30.23196851 -22 26 C-22.66 25.67 -23.32 25.34 -24 25 C-23.30849854 24.31373535 -22.61699707 23.6274707 -21.90454102 22.92041016 C-19.34325826 20.37720731 -16.78526991 17.83071291 -14.22827148 15.28320312 C-13.1204464 14.18041139 -12.01172607 13.07851824 -10.90209961 11.97753906 C-9.3086792 10.39622779 -7.71849052 8.81172876 -6.12890625 7.2265625 C-5.63097061 6.73378815 -5.13303497 6.24101379 -4.62001038 5.73330688 C-1.97665258 3.11862332 -1.97665258 3.11862332 0 0 Z " fill="#BDD2CE" transform="translate(171,53)"/>
<path d="M0 0 C3.69230769 0.69230769 3.69230769 0.69230769 5 2 C5.30244491 4.26683961 5.56601996 6.53889442 5.8125 8.8125 C6.69956797 15.92335132 8.25143021 22.34730556 11 29 C11.24959473 29.60424805 11.49918945 30.20849609 11.75634766 30.83105469 C16.62292954 42.27946552 23.39848049 51.08883675 32 60 C33.16595703 61.24523437 33.16595703 61.24523437 34.35546875 62.515625 C40.51679042 68.57880172 47.85960269 72.73382528 55.30883789 77.01635742 C56.58102173 77.7488269 56.58102173 77.7488269 57.87890625 78.49609375 C58.6479126 78.93107178 59.41691895 79.3660498 60.20922852 79.81420898 C62 81 62 81 63 83 C61.75 84.5625 61.75 84.5625 60 86 C55.99703326 85.57276921 52.61213168 83.2876893 49.1875 81.3125 C48.24656494 80.7712146 48.24656494 80.7712146 47.28662109 80.21899414 C42.74240081 77.55075759 38.82264932 74.6319935 35 71 C33.68996152 69.87213456 32.37732194 68.7472854 31.0625 67.625 C29.704595 66.42086927 28.35042163 65.21251731 27 64 C26.36191406 63.44054687 25.72382813 62.88109375 25.06640625 62.3046875 C11.23634849 49.44857747 -0.0403855 28.62542094 -1.20703125 9.62890625 C-1.24460349 6.7290128 -1.2550474 3.88890224 -1 1 C-0.67 0.67 -0.34 0.34 0 0 Z " fill="#3C6579" transform="translate(106,139)"/>
<path d="M0 0 C1.65 0.33 3.3 0.66 5 1 C3.56920975 12.04888024 -7.60375934 21.69464357 -15.8984375 28.3125 C-31.88230797 39.99453867 -49.09479521 45.80575792 -69 45 C-69.12375 44.360625 -69.2475 43.72125 -69.375 43.0625 C-69.58125 42.381875 -69.7875 41.70125 -70 41 C-70.66 40.67 -71.32 40.34 -72 40 C-71.34 40 -70.68 40 -70 40 C-70 38.68 -70 37.36 -70 36 C-69.34 36.33 -68.68 36.66 -68 37 C-68.33 37.66 -68.66 38.32 -69 39 C-43.1162941 35.39213392 -21.94061759 28.11828121 -5 7 C-3.265271 4.70254184 -1.62088949 2.38068144 0 0 Z " fill="#37677D" transform="translate(248,230)"/>
<path d="M0 0 C2.046875 1.4765625 2.046875 1.4765625 2.65625 4.953125 C2.72269281 6.3351355 2.7688002 7.7182406 2.796875 9.1015625 C2.82652344 9.80796875 2.85617187 10.514375 2.88671875 11.2421875 C2.95742857 12.98636297 3.00441535 14.73147077 3.046875 16.4765625 C3.79453125 16.45335938 4.5421875 16.43015625 5.3125 16.40625 C6.29734375 16.38820313 7.2821875 16.37015625 8.296875 16.3515625 C9.27140625 16.32835938 10.2459375 16.30515625 11.25 16.28125 C14.09581475 16.47998008 15.67785615 16.9244467 18.046875 18.4765625 C18.984375 20.4140625 18.984375 20.4140625 19.046875 22.4765625 C18 24.09375 18 24.09375 16.046875 25.4765625 C12.69140625 25.76953125 12.69140625 25.76953125 8.859375 25.6640625 C6.95091797 25.62345703 6.95091797 25.62345703 5.00390625 25.58203125 C3.54017578 25.52982422 3.54017578 25.52982422 2.046875 25.4765625 C2.07007813 26.46398437 2.09328125 27.45140625 2.1171875 28.46875 C2.14425781 30.39074219 2.14425781 30.39074219 2.171875 32.3515625 C2.19507813 33.62773438 2.21828125 34.90390625 2.2421875 36.21875 C2.046875 39.4765625 2.046875 39.4765625 0.046875 41.4765625 C-2.515625 41.2265625 -2.515625 41.2265625 -4.953125 40.4765625 C-6.39520441 37.59240367 -6.04707387 35.05934722 -6.015625 31.8515625 C-6.00660156 30.66304687 -5.99757813 29.47453125 -5.98828125 28.25 C-5.97667969 27.33476563 -5.96507812 26.41953125 -5.953125 25.4765625 C-6.94054687 25.42757812 -7.92796875 25.37859375 -8.9453125 25.328125 C-10.22664063 25.25335938 -11.50796875 25.17859375 -12.828125 25.1015625 C-14.10429687 25.03195313 -15.38046875 24.96234375 -16.6953125 24.890625 C-19.953125 24.4765625 -19.953125 24.4765625 -21.953125 22.4765625 C-21.623125 20.8265625 -21.293125 19.1765625 -20.953125 17.4765625 C-16.333125 17.1465625 -11.713125 16.8165625 -6.953125 16.4765625 C-6.870625 14.2284375 -6.788125 11.9803125 -6.703125 9.6640625 C-6.45697115 2.95637019 -6.45697115 2.95637019 -3.90625 0.52734375 C-1.953125 -0.5234375 -1.953125 -0.5234375 0 0 Z " fill="#829FAA" transform="translate(269.953125,84.5234375)"/>
<path d="M0 0 C0.99 0 1.98 0 3 0 C3.1959375 0.969375 3.391875 1.93875 3.59375 2.9375 C9.16491747 28.58747799 24.83982636 45.96625083 43 64 C44.00035844 64.99964144 45.00047052 65.9995297 46 67 C45.67 67.66 45.34 68.32 45 69 C42.875 69.328125 42.875 69.328125 40 69 C37.80623772 67.30800249 35.94463968 65.68970405 34 63.75 C32.98055288 62.76418946 31.95973554 61.77979379 30.9375 60.796875 C30.44217773 60.31508789 29.94685547 59.83330078 29.43652344 59.33691406 C27.8660198 57.83451483 27.8660198 57.83451483 25.453125 56.03125 C12.83192035 45.58057099 -0.18495627 24.51628308 -2.3671875 8.265625 C-2.4375 5.8125 -2.4375 5.8125 -2 2 C-1.34 1.34 -0.68 0.68 0 0 Z " fill="#3E6679" transform="translate(126,103)"/>
<path d="M0 0 C0.99 0 1.98 0 3 0 C5.55940444 3.83910667 5.15807394 5.62815579 4.59765625 10.06640625 C0.72221916 29.08897656 -11.8003393 47.04592357 -26 60 C-26.66 60 -27.32 60 -28 60 C-29.28681428 56.13955715 -28.59349417 54.69315708 -27 51 C-25.046875 48.796875 -25.046875 48.796875 -22.75 46.75 C-18.05955661 42.23909511 -15.02316781 37.73094152 -12 32 C-11.68144043 31.42362793 -11.36288086 30.84725586 -11.03466797 30.25341797 C-5.61921176 20.43838097 -2.21983398 10.98233655 0 0 Z " fill="#39677C" transform="translate(221,103)"/>
<path d="M0 0 C2.80175356 1.86783571 4.11192137 3.30274481 6 6 C5.34 6 4.68 6 4 6 C4.495 9.96 4.495 9.96 5 14 C7.31 14.33 9.62 14.66 12 15 C12 15.33 12 15.66 12 16 C10.02 16 8.04 16 6 16 C6.01571045 16.64549805 6.0314209 17.29099609 6.04760742 17.95605469 C6.11005802 20.88728029 6.1490223 23.81836579 6.1875 26.75 C6.21263672 27.76578125 6.23777344 28.7815625 6.26367188 29.828125 C6.27333984 30.8078125 6.28300781 31.7875 6.29296875 32.796875 C6.3086792 33.69760742 6.32438965 34.59833984 6.34057617 35.52636719 C5.93761772 38.45308763 4.9344597 39.81341349 3 42 C0.5625 41.625 0.5625 41.625 -2 41 C-3.27861615 38.44276771 -3.11336609 36.63262898 -3.09765625 33.7734375 C-3.09443359 32.7421875 -3.09121094 31.7109375 -3.08789062 30.6484375 C-3.07951172 29.56820313 -3.07113281 28.48796875 -3.0625 27.375 C-3.05798828 26.28703125 -3.05347656 25.1990625 -3.04882812 24.078125 C-3.03701776 21.38536211 -3.02054778 18.69270812 -3 16 C-4.2065625 15.87882812 -5.413125 15.75765625 -6.65625 15.6328125 C-8.27086471 15.46384119 -9.88544632 15.29455344 -11.5 15.125 C-12.68722656 15.00705078 -12.68722656 15.00705078 -13.8984375 14.88671875 C-19.09066024 14.33344911 -23.96153821 13.3751765 -29 12 C-29 11.67 -29 11.34 -29 11 C-27.25034642 10.94570041 -25.50020213 10.90707177 -23.75 10.875 C-22.77546875 10.85179687 -21.8009375 10.82859375 -20.796875 10.8046875 C-17.91421094 11.00599086 -16.51805833 11.70035699 -14 13 C-11.63777768 13.23979762 -11.63777768 13.23979762 -9.25 13.125 C-8.05117187 13.09792969 -8.05117187 13.09792969 -6.828125 13.0703125 C-5.92320312 13.03550781 -5.92320312 13.03550781 -5 13 C-5.33 11.68 -5.66 10.36 -6 9 C-4.35 8.67 -2.7 8.34 -1 8 C-1.33 5.69 -1.66 3.38 -2 1 C-1.34 0.67 -0.68 0.34 0 0 Z " fill="#668797" transform="translate(174,260)"/>
<path d="M0 0 C0.33 0 0.66 0 1 0 C1.04898438 0.94101563 1.09796875 1.88203125 1.1484375 2.8515625 C1.22320312 4.09679687 1.29796875 5.34203125 1.375 6.625 C1.44460937 7.85476562 1.51421875 9.08453125 1.5859375 10.3515625 C1.98428735 13.86155078 2.80091941 16.69344443 4 20 C4.40098325 21.61878424 4.77894357 23.24359112 5.125 24.875 C5.29257813 25.65617187 5.46015625 26.43734375 5.6328125 27.2421875 C5.75398438 27.82226562 5.87515625 28.40234375 6 29 C6.66 29 7.32 29 8 29 C7.67 28.01 7.34 27.02 7 26 C13.39212725 27.17406419 17.03350222 29.84132451 21 35 C22.125 37.75 22.125 37.75 22 40 C20.8125 41.625 20.8125 41.625 19 43 C18.278125 43.556875 17.55625 44.11375 16.8125 44.6875 C16.214375 45.120625 15.61625 45.55375 15 46 C14.34 45.67 13.68 45.34 13 45 C12.01 45.99 11.02 46.98 10 48 C7.35852044 44.81944298 5.90638182 41.66658802 4.4375 37.8125 C4.02371094 36.74644531 3.60992187 35.68039063 3.18359375 34.58203125 C0.47859112 26.39560414 -0.27324746 19.05295826 -0.125 10.4375 C-0.11597656 9.42880859 -0.10695313 8.42011719 -0.09765625 7.38085938 C-0.07433356 4.92031543 -0.04160763 2.46029104 0 0 Z " fill="#B8CCC9" transform="translate(86,182)"/>
<path d="M0 0 C1.32 0.33 2.64 0.66 4 1 C4.57901318 5.87261858 2.89910064 8.04004377 -0.0625 11.8125 C-0.47298584 12.33803467 -0.88347168 12.86356934 -1.30639648 13.4050293 C-2.52225298 14.94889528 -3.76078855 16.47481668 -5 18 C-5.61875 18.763125 -6.2375 19.52625 -6.875 20.3125 C-11.72860393 26.06491947 -17.07140387 31.83527538 -24 35 C-24.66 34.01 -25.32 33.02 -26 32 C-24.68 31.34 -23.36 30.68 -22 30 C-22 28.68 -22 27.36 -22 26 C-20.37251976 24.61910767 -18.69443347 23.29786393 -17 22 C-10.50955781 15.3677763 -5.13504603 7.70256904 0 0 Z " fill="#3A677C" transform="translate(202,79)"/>
<path d="M0 0 C0.66 0.33 1.32 0.66 2 1 C2.33 1.99 2.66 2.98 3 4 C3.66 2.68 4.32 1.36 5 0 C5 13.86 5 27.72 5 42 C4.34 42 3.68 42 3 42 C2.67 41.34 2.34 40.68 2 40 C1.01 40.495 1.01 40.495 0 41 C-1.30286938 37.09139187 -1.01353276 33.45657086 -0.87890625 29.39453125 C-0.85529526 28.55532639 -0.83168427 27.71612152 -0.80735779 26.85148621 C-0.73079724 24.1716488 -0.64674019 21.49210593 -0.5625 18.8125 C-0.50927169 16.99545711 -0.45653134 15.17839986 -0.40429688 13.36132812 C-0.27519238 8.90736565 -0.13936429 4.45365278 0 0 Z " fill="#366175" transform="translate(173,179)"/>
<path d="M0 0 C2.475 0.495 2.475 0.495 5 1 C4.45336432 5.41327926 2.84587594 8.11085138 0.25 11.6875 C-0.76320312 13.11642578 -0.76320312 13.11642578 -1.796875 14.57421875 C-4.13567119 17.14938264 -5.7707756 17.88514872 -9 19 C-9.33 19.66 -9.66 20.32 -10 21 C-10.99 21 -11.98 21 -13 21 C-13 21.66 -13 22.32 -13 23 C-14.65 23.33 -16.3 23.66 -18 24 C-18.33 25.65 -18.66 27.3 -19 29 C-20.32 28.67 -21.64 28.34 -23 28 C-21.59463898 23.10792052 -18.62094397 20.56784803 -14.875 17.375 C-8.91975781 12.1192572 -4.35201265 6.67922184 0 0 Z " fill="#33647B" transform="translate(248,230)"/>
<path d="M0 0 C1.66413655 3.3282731 0.81867406 6.99733973 0.5625 10.625 C0.51029297 11.42679688 0.45808594 12.22859375 0.40429688 13.0546875 C0.27451629 15.03679103 0.13790265 17.01844499 0 19 C-0.99 18.67 -1.98 18.34 -3 18 C-3 18.66 -3 19.32 -3 20 C-2.01 20.66 -1.02 21.32 0 22 C0.38411275 24.609621 0.60293197 27.0058074 0.6875 29.625 C0.73874023 30.68460938 0.73874023 30.68460938 0.79101562 31.765625 C0.87351308 33.50985688 0.93843335 35.25490395 1 37 C2.485 36.505 2.485 36.505 4 36 C4 36.66 4 37.32 4 38 C4.66 38.33 5.32 38.66 6 39 C3.525 39.495 3.525 39.495 1 40 C-1.42130331 36.36804504 -1.21022785 34.61650652 -1.125 30.3125 C-1.10695313 29.13300781 -1.08890625 27.95351562 -1.0703125 26.73828125 C-1.04710937 25.83464844 -1.02390625 24.93101563 -1 24 C-1.98742187 23.95101562 -2.97484375 23.90203125 -3.9921875 23.8515625 C-5.27351563 23.77679688 -6.55484375 23.70203125 -7.875 23.625 C-9.15117187 23.55539063 -10.42734375 23.48578125 -11.7421875 23.4140625 C-15 23 -15 23 -17 21 C-16.67 19.35 -16.34 17.7 -16 16 C-11.38 15.67 -6.76 15.34 -2 15 C-1.855625 12.710625 -1.71125 10.42125 -1.5625 8.0625 C-1.125 1.125 -1.125 1.125 0 0 Z " fill="#4B6D7C" transform="translate(265,86)"/>
<path d="M0 0 C3.50429974 0.26206068 4.72247539 0.68733261 7.09765625 3.36328125 C7.74605469 4.33652344 8.39445312 5.30976563 9.0625 6.3125 C11.48200368 9.90103121 13.83771482 13.03491746 17 16 C16.67 16.66 16.34 17.32 16 18 C15.01 18.33 14.02 18.66 13 19 C13.33 19.99 13.66 20.98 14 22 C10.2467422 20.49701757 8.39792505 18.34954916 5.9375 15.1875 C5.26589844 14.33542969 4.59429687 13.48335937 3.90234375 12.60546875 C-1.08594059 5.77346535 -1.08594059 5.77346535 -0.6875 2.1875 C-0.460625 1.465625 -0.23375 0.74375 0 0 Z " fill="#567886" transform="translate(99,230)"/>
<path d="M0 0 C0.33 0 0.66 0 1 0 C1.33 17.49 1.66 34.98 2 53 C4.64 50.69 7.28 48.38 10 46 C11.65651812 44.65407903 13.31806068 43.3140151 15 42 C16.49060543 46.91022965 16.49060543 46.91022965 16 50 C13.40827443 53.20983586 10.42662286 55.71152719 7 58 C6.34 58 5.68 58 5 58 C4.34 57.34 3.68 56.68 3 56 C2.01 55.67 1.02 55.34 0 55 C0 36.85 0 18.7 0 0 Z " fill="#557F8F" transform="translate(178,114)"/>
<path d="M0 0 C0.53625 0.10957031 1.0725 0.21914063 1.625 0.33203125 C9.73422314 1.97254843 17.86637615 3.48629829 26 5 C26.12375 5.639375 26.2475 6.27875 26.375 6.9375 C26.58125 7.618125 26.7875 8.29875 27 9 C27.66 9.33 28.32 9.66 29 10 C27.2709226 10.02725341 25.54171824 10.04650987 23.8125 10.0625 C22.36810547 10.07990234 22.36810547 10.07990234 20.89453125 10.09765625 C18.14423487 10.00486622 15.67520409 9.62111685 13 9 C13 8.67 13 8.34 13 8 C11.87851563 7.94392578 11.87851563 7.94392578 10.734375 7.88671875 C9.25710937 7.78810547 9.25710937 7.78810547 7.75 7.6875 C6.77546875 7.62949219 5.8009375 7.57148438 4.796875 7.51171875 C1.74658389 6.95363476 0.29288724 6.03630224 -2 4 C-1.34 2.68 -0.68 1.36 0 0 Z " fill="#396273" transform="translate(142,264)"/>
<path d="M0 0 C0.33 0 0.66 0 1 0 C1.33 15.18 1.66 30.36 2 46 C1.01 46 0.02 46 -1 46 C-1.33 46.99 -1.66 47.98 -2 49 C-2.33 48.67 -2.66 48.34 -3 48 C-5.42869909 51.64304864 -5.25675675 54.30722339 -5.1953125 58.51171875 C-5.1924826 59.23994339 -5.18965271 59.96816803 -5.18673706 60.71846008 C-5.17555257 63.04164137 -5.15045166 65.36443547 -5.125 67.6875 C-5.11496794 69.2636663 -5.10584248 70.83983865 -5.09765625 72.41601562 C-5.07561896 76.27749267 -5.04110141 80.13868071 -5 84 C-5.33 84 -5.66 84 -6 84 C-6 73.44 -6 62.88 -6 52 C-7.32 51.67 -8.64 51.34 -10 51 C-10.99 50.34 -11.98 49.68 -13 49 C-11.71034824 47.62437146 -10.37310707 46.29233607 -9 45 C-8.34 45 -7.68 45 -7 45 C-6.34 44.01 -5.68 43.02 -5 42 C-4.01 42 -3.02 42 -2 42 C-2 42.99 -2 43.98 -2 45 C-1.34 45 -0.68 45 0 45 C0 30.15 0 15.3 0 0 Z " fill="#577F90" transform="translate(178,176)"/>
<path d="M0 0 C6.03444313 4.98497476 11.51142529 10.4250666 17 16 C17.99891363 17.00108519 18.99837531 18.00162734 20 19 C19.67 19.66 19.34 20.32 19 21 C16.34332425 21.48030296 14.62344686 21.42993761 12.36865234 19.875 C10.58412091 18.30104635 8.87848265 16.67401627 7.1875 15 C6.2912793 14.14148438 6.2912793 14.14148438 5.37695312 13.265625 C3.90731099 11.85476855 2.45219583 10.42880761 1 9 C1.66 8.67 2.32 8.34 3 8 C2.01 7.67 1.02 7.34 0 7 C0 4.69 0 2.38 0 0 Z " fill="#3A6376" transform="translate(152,151)"/>
<path d="M0 0 C2 4 2 4 3 7 C3.37125 7.928125 3.7425 8.85625 4.125 9.8125 C5 13 5 13 4.52734375 15.76953125 C3.95133956 19.29809025 4.11109699 22.32083385 4.4375 25.875 C4.53933594 27.02742188 4.64117187 28.17984375 4.74609375 29.3671875 C4.82988281 30.23601562 4.91367187 31.10484375 5 32 C3.35 31.67 1.7 31.34 0 31 C-0.16435547 29.41058594 -0.16435547 29.41058594 -0.33203125 27.7890625 C-0.49147549 26.4009597 -0.65167084 25.01294302 -0.8125 23.625 C-0.91788086 22.57699219 -0.91788086 22.57699219 -1.02539062 21.5078125 C-1.24788292 19.65667662 -1.61662522 17.82461795 -2 16 C-2.99 15.34 -3.98 14.68 -5 14 C-4 12 -4 12 -1 11 C-0.67 7.37 -0.34 3.74 0 0 Z " fill="#306279" transform="translate(266,92)"/>
<path d="M0 0 C0.66 0.33 1.32 0.66 2 1 C1.67 1.66 1.34 2.32 1 3 C1.94875 2.835 2.8975 2.67 3.875 2.5 C8.5763877 1.81458208 13.26003286 1.91416559 18 2 C18 2.66 18 3.32 18 4 C18.66 4.33 19.32 4.66 20 5 C19.67 5.66 19.34 6.32 19 7 C13.10740139 8.65155878 7.09718475 9.27098599 1 9 C0.87625 8.360625 0.7525 7.72125 0.625 7.0625 C0.315625 6.0415625 0.315625 6.0415625 0 5 C-0.66 4.67 -1.32 4.34 -2 4 C-1.34 4 -0.68 4 0 4 C0 2.68 0 1.36 0 0 Z " fill="#406476" transform="translate(178,266)"/>
<path d="M0 0 C1.46726798 3.81489674 0.43336419 6.29011622 -1 10 C-1.66 10 -2.32 10 -3 10 C-2.7834375 10.86625 -2.7834375 10.86625 -2.5625 11.75 C-2.376875 12.4925 -2.19125 13.235 -2 14 C-1.79375 14.639375 -1.5875 15.27875 -1.375 15.9375 C-0.90690932 18.51199874 -1.37045414 20.48181657 -2 23 C-2.99 22.67 -3.98 22.34 -5 22 C-5.66 22.66 -6.32 23.32 -7 24 C-7.66 23.67 -8.32 23.34 -9 23 C-9.12375 23.928125 -9.12375 23.928125 -9.25 24.875 C-10 27 -10 27 -11.875 28.0625 C-12.926875 28.5265625 -12.926875 28.5265625 -14 29 C-15.70921589 30.5412312 -15.70921589 30.5412312 -17 32 C-17 28.14306425 -15.80676043 27.18616548 -13.4375 24.1875 C-8.66197756 17.82579159 -5.38004896 11.17118496 -2 4 C-1.33766583 2.6645092 -0.67319453 1.33004938 0 0 Z " fill="#B1CDD3" transform="translate(240,167)"/>
<path d="M0 0 C0.33 0 0.66 0 1 0 C1.04898438 0.94101563 1.09796875 1.88203125 1.1484375 2.8515625 C1.22320312 4.09679687 1.29796875 5.34203125 1.375 6.625 C1.44460937 7.85476562 1.51421875 9.08453125 1.5859375 10.3515625 C1.98428735 13.86155078 2.80091941 16.69344443 4 20 C4.40098325 21.61878424 4.77894357 23.24359112 5.125 24.875 C5.29257813 25.65617187 5.46015625 26.43734375 5.6328125 27.2421875 C5.75398438 27.82226562 5.87515625 28.40234375 6 29 C6.66 29 7.32 29 8 29 C7.67 28.01 7.34 27.02 7 26 C8.65 26.33 10.3 26.66 12 27 C10.9024777 29.99324263 10.32317108 30.84610901 7.375 32.25 C6.59125 32.4975 5.8075 32.745 5 33 C5.33 34.98 5.66 36.96 6 39 C-0.08362362 32.91637638 -0.22600847 21.1774613 -0.27685547 13.08105469 C-0.23804333 8.71857063 -0.15534868 4.35992053 0 0 Z " fill="#D5DDD3" transform="translate(86,182)"/>
<path d="M0 0 C0.60328125 0.2165625 1.2065625 0.433125 1.828125 0.65625 C2.62734375 0.9346875 3.4265625 1.213125 4.25 1.5 C5.03890625 1.7784375 5.8278125 2.056875 6.640625 2.34375 C10.10290885 3.30676935 12.60965007 3.13011664 16 2 C19.1875 3.4375 19.1875 3.4375 22 5 C21.773125 5.763125 21.54625 6.52625 21.3125 7.3125 C21.209375 8.199375 21.10625 9.08625 21 10 C22.42452044 11.67482482 22.42452044 11.67482482 24 13 C15.45022119 11.01387882 5.03603018 7.55404527 0 0 Z " fill="#587A8A" transform="translate(120,258)"/>
<path d="M0 0 C0.99 0.66 1.98 1.32 3 2 C-1.20158517 6.59243031 -5.59853294 10.33034997 -10.6875 13.875 C-11.24590576 14.2680835 -11.80431152 14.66116699 -12.37963867 15.06616211 C-15.18454361 16.97987511 -17.61089768 18.48874855 -21 19 C-20.9119171 13.71502591 -20.9119171 13.71502591 -20 11 C-17.77618924 9.05416558 -15.75254348 8.20110988 -13 7 C-13.33 8.32 -13.66 9.64 -14 11 C-12.68 11 -11.36 11 -10 11 C-9.67 9.68 -9.34 8.36 -9 7 C-8.34 7 -7.68 7 -7 7 C-6.67 6.34 -6.34 5.68 -6 5 C-5.34 5.33 -4.68 5.66 -4 6 C-4 5.34 -4 4.68 -4 4 C-3.01 4 -2.02 4 -1 4 C-0.67 2.68 -0.34 1.36 0 0 Z " fill="#567B8D" transform="translate(239,247)"/>
<path d="M0 0 C0.80824219 0.10183594 1.61648437 0.20367187 2.44921875 0.30859375 C3.06410156 0.39238281 3.67898437 0.47617187 4.3125 0.5625 C4.3125 0.8925 4.3125 1.2225 4.3125 1.5625 C2.3325 1.5625 0.3525 1.5625 -1.6875 1.5625 C-1.67702637 2.21847168 -1.66655273 2.87444336 -1.65576172 3.55029297 C-1.61427497 6.51265658 -1.58819738 9.47495916 -1.5625 12.4375 C-1.54574219 13.47003906 -1.52898437 14.50257813 -1.51171875 15.56640625 C-1.50527344 16.55253906 -1.49882812 17.53867187 -1.4921875 18.5546875 C-1.48171387 19.46589355 -1.47124023 20.37709961 -1.46044922 21.31591797 C-1.6875 23.5625 -1.6875 23.5625 -3.6875 25.5625 C-3.72488281 24.71945312 -3.76226562 23.87640625 -3.80078125 23.0078125 C-3.86652344 21.91210938 -3.93226563 20.81640625 -4 19.6875 C-4.05800781 18.59695313 -4.11601562 17.50640625 -4.17578125 16.3828125 C-4.42908203 14.98675781 -4.42908203 14.98675781 -4.6875 13.5625 C-5.6775 12.9025 -6.6675 12.2425 -7.6875 11.5625 C-7.98046875 8.9609375 -7.98046875 8.9609375 -7.875 5.9375 C-7.84792969 4.93460937 -7.82085937 3.93171875 -7.79296875 2.8984375 C-7.75816406 2.12757813 -7.72335938 1.35671875 -7.6875 0.5625 C-4.59271121 -0.46909626 -3.16118607 -0.41232862 0 0 Z " fill="#82A1AB" transform="translate(181.6875,274.4375)"/>
<path d="M0 0 C0.66 0.33 1.32 0.66 2 1 C2 1.66 2 2.32 2 3 C2.66 3.66 3.32 4.32 4 5 C3.67 5.66 3.34 6.32 3 7 C3.66 7.33 4.32 7.66 5 8 C5 8.99 5 9.98 5 11 C5.99 10.67 6.98 10.34 8 10 C8.33 10.99 8.66 11.98 9 13 C12.23833582 14.87103847 15.31985875 16.29228053 19 17 C19 20 19 20 18 22 C8.3901567 16.6067206 0.86167197 9.6321341 -7 2 C-3.86650268 0.95550089 -3.01031744 1.06576355 0 2 C0 1.34 0 0.68 0 0 Z " fill="#A7C6C9" transform="translate(140,193)"/>
<path d="M0 0 C1.65 1.65 3.3 3.3 5 5 C4.67 5.66 4.34 6.32 4 7 C4.639375 7.103125 5.27875 7.20625 5.9375 7.3125 C6.618125 7.539375 7.29875 7.76625 8 8 C8.33 8.99 8.66 9.98 9 11 C9.66 11.33 10.32 11.66 11 12 C10.90460938 11.37351562 10.80921875 10.74703125 10.7109375 10.1015625 C10.60007813 9.28429687 10.48921875 8.46703125 10.375 7.625 C10.25898438 6.81289062 10.14296875 6.00078125 10.0234375 5.1640625 C10.01570312 4.44992188 10.00796875 3.73578125 10 3 C10.66 2.34 11.32 1.68 12 1 C12 6.28 12 11.56 12 17 C6.375 13.625 6.375 13.625 4.10546875 11.08203125 C3.62529297 10.55029297 3.14511719 10.01855469 2.65039062 9.47070312 C2.16763672 8.92349609 1.68488281 8.37628906 1.1875 7.8125 C0.68541016 7.25369141 0.18332031 6.69488281 -0.33398438 6.11914062 C-1.56165889 4.75116046 -2.7816269 3.37627084 -4 2 C-2.68 1.34 -1.36 0.68 0 0 Z " fill="#AFCCD1" transform="translate(160,89)"/>
<path d="M0 0 C0.66 0 1.32 0 2 0 C2.33 3.63 2.66 7.26 3 11 C3.99 10.01 4.98 9.02 6 8 C6 13.94 6 19.88 6 26 C4.35 26 2.7 26 1 26 C0.67 17.42 0.34 8.84 0 0 Z " fill="#3A5F6E" transform="translate(172,274)"/>
<path d="M0 0 C0.66 0.33 1.32 0.66 2 1 C2 2.32 2 3.64 2 5 C2.66 5.33 3.32 5.66 4 6 C4.66 5.34 5.32 4.68 6 4 C5.25 11.625 5.25 11.625 3 15 C2.67 14.01 2.34 13.02 2 12 C1.34 12.66 0.68 13.32 0 14 C-0.33 13.01 -0.66 12.02 -1 11 C-5.14093698 10.79029441 -5.14093698 10.79029441 -9 12 C-7.55575365 8.76138697 -5.74227753 6.38030837 -3.375 3.75 C-2.74335938 3.04359375 -2.11171875 2.3371875 -1.4609375 1.609375 C-0.97882813 1.07828125 -0.49671875 0.5471875 0 0 Z " fill="#B6CACA" transform="translate(257,202)"/>
<path d="M0 0 C2.31 0 4.62 0 7 0 C6.71890887 1.64767247 6.42481474 3.29313145 6.125 4.9375 C5.96257812 5.85402344 5.80015625 6.77054688 5.6328125 7.71484375 C5.42398438 8.46894531 5.21515625 9.22304687 5 10 C4.01 10.495 4.01 10.495 3 11 C2.67 9.68 2.34 8.36 2 7 C1.67 19.21 1.34 31.42 1 44 C0.67 44 0.34 44 0 44 C0 29.48 0 14.96 0 0 Z " fill="#476F82" transform="translate(172,173)"/>
<path d="M0 0 C0.99 0 1.98 0 3 0 C4.4375 2.125 4.4375 2.125 6 5 C7.32458708 7.00580329 8.6559907 9.00715862 10 11 C8.02 11.99 6.04 12.98 4 14 C-0.87626031 8.1136572 -0.87626031 8.1136572 -1.375 3.625 C-1 1 -1 1 0 0 Z " fill="#3E6879" transform="translate(146,79)"/>
<path d="M0 0 C0.33 0 0.66 0 1 0 C1.06058594 0.62648438 1.12117188 1.25296875 1.18359375 1.8984375 C1.26738281 2.71570313 1.35117188 3.53296875 1.4375 4.375 C1.55931641 5.59316406 1.55931641 5.59316406 1.68359375 6.8359375 C1.89090114 9.04272805 1.89090114 9.04272805 3 11 C2.34 11 1.68 11 1 11 C0.67 11.66 0.34 12.32 0 13 C0 12.01 0 11.02 0 10 C-0.99 10.495 -0.99 10.495 -2 11 C-2 11.66 -2 12.32 -2 13 C-2.66 13 -3.32 13 -4 13 C-4.33 12.34 -4.66 11.68 -5 11 C-5.061875 11.61875 -5.12375 12.2375 -5.1875 12.875 C-6 15 -6 15 -8.5625 16.25 C-9.366875 16.4975 -10.17125 16.745 -11 17 C-9.52818439 12.66498025 -7.2017333 9.28143997 -4.4375 5.6875 C-4.02564453 5.13771484 -3.61378906 4.58792969 -3.18945312 4.02148438 C-2.1550682 2.65866955 -1.08087744 1.32624296 0 0 Z " fill="#C4D5CE" transform="translate(121,110)"/>
<path d="M0 0 C1.65 0.33 3.3 0.66 5 1 C4.34 2.32 3.68 3.64 3 5 C2.01 5 1.02 5 0 5 C-2.80074212 7.13686251 -3.67870629 9.37289208 -4.6875 12.6875 C-4.93886719 13.49574219 -5.19023437 14.30398437 -5.44921875 15.13671875 C-5.63097656 15.75160156 -5.81273437 16.36648437 -6 17 C-6.99 17 -7.98 17 -9 17 C-9 16.34 -9 15.68 -9 15 C-9.66 14.67 -10.32 14.34 -11 14 C-3.70159453 4.58997722 -3.70159453 4.58997722 0 0 Z " fill="#C5D4CE" transform="translate(138,88)"/>
<path d="M0 0 C0.33 0.99 0.66 1.98 1 3 C-0.32 3.33 -1.64 3.66 -3 4 C-2.01 4.33 -1.02 4.66 0 5 C0 5.99 0 6.98 0 8 C0.66 8.33 1.32 8.66 2 9 C0.35 9.33 -1.3 9.66 -3 10 C-3 9.01 -3 8.02 -3 7 C-5.91517292 8.07401108 -7.77810176 8.77810176 -10 11 C-14.0706186 14.30681599 -17.92817779 17.41505556 -23 19 C-18.89006384 14.70434963 -14.43929043 10.97655519 -9.8125 7.25 C-9.08869141 6.66089844 -8.36488281 6.07179687 -7.61914062 5.46484375 C-2.2675047 1.13375235 -2.2675047 1.13375235 0 0 Z " fill="#B2D0D5" transform="translate(213,238)"/>
<path d="M0 0 C4.42857143 5.14285714 4.42857143 5.14285714 5 9 C1.125 8.125 1.125 8.125 0 7 C-0.05607422 8.91425781 -0.05607422 8.91425781 -0.11328125 10.8671875 C-0.17892791 12.53648838 -0.2453757 14.20575789 -0.3125 15.875 C-0.33505859 16.71675781 -0.35761719 17.55851562 -0.38085938 18.42578125 C-0.4340332 19.63427734 -0.4340332 19.63427734 -0.48828125 20.8671875 C-0.51446533 21.61081543 -0.54064941 22.35444336 -0.56762695 23.12060547 C-1 25 -1 25 -4 27 C-3.93941406 26.37996094 -3.87882813 25.75992188 -3.81640625 25.12109375 C-3.40167254 20.73767749 -3.00660817 16.36245809 -2.78125 11.96484375 C-2.72602173 10.94789429 -2.72602173 10.94789429 -2.66967773 9.91040039 C-2.56581821 7.93801575 -2.47219288 5.96510047 -2.37890625 3.9921875 C-2.25386719 3.00476563 -2.12882813 2.01734375 -2 1 C-1.34 0.67 -0.68 0.34 0 0 Z " fill="#B3D1D8" transform="translate(246,136)"/>
<path d="M0 0 C-0.33 1.32 -0.66 2.64 -1 4 C0.32 4.66 1.64 5.32 3 6 C-10.6332574 9.44419134 -10.6332574 9.44419134 -17 9 C-17 8.67 -17 8.34 -17 8 C-11.555 7.505 -11.555 7.505 -6 7 C-6.33 5.35 -6.66 3.7 -7 2 C-7.66 1.67 -8.32 1.34 -9 1 C-5.92677456 0.08941469 -3.19902639 -0.08886184 0 0 Z " fill="#6F929F" transform="translate(203,266)"/>
<path d="M0 0 C0.639375 0.33 1.27875 0.66 1.9375 1 C3.76794567 2.07271225 3.76794567 2.07271225 5 2 C5.33 6.29 5.66 10.58 6 15 C4.35 14.67 2.7 14.34 1 14 C-0.20568053 9.32798795 -0.09382426 4.78503708 0 0 Z " fill="#3D6A78" transform="translate(265,109)"/>
<path d="M0 0 C1.65 0.33 3.3 0.66 5 1 C4.54300722 6.02692063 2.00758252 9.14896261 -1 13 C-1.93423645 9.98968256 -2.04449911 9.13349732 -1 6 C-1.99 5.67 -2.98 5.34 -4 5 C-2.68 3.35 -1.36 1.7 0 0 Z " fill="#528092" transform="translate(248,230)"/>
<path d="M0 0 C2.5 2.3125 2.5 2.3125 5 5 C5 5.99 5 6.98 5 8 C5.0825 9.134375 5.165 10.26875 5.25 11.4375 C5 15 5 15 3 17.4375 C2.01 18.2109375 2.01 18.2109375 1 19 C0.34 18.34 -0.32 17.68 -1 17 C-0.53908875 15.02466608 -0.06881265 13.05026303 0.48046875 11.09765625 C1.46690511 7.11482674 1.28643305 3.85929914 0 0 Z " fill="#B0D1D3" transform="translate(224,103)"/>
<path d="M0 0 C-0.35010941 8.35010941 -0.35010941 8.35010941 -3.0625 11.0625 C-3.701875 11.371875 -4.34125 11.68125 -5 12 C-5.99 10.02 -6.98 8.04 -8 6 C-3.375 0 -3.375 0 0 0 Z " fill="#2C6078" transform="translate(247,236)"/>
<path d="M0 0 C0.33 0.66 0.66 1.32 1 2 C1.66 2 2.32 2 3 2 C1.64199529 4.96530497 0.07571737 7.29131271 -2.0625 9.75 C-2.85333984 10.67039063 -2.85333984 10.67039063 -3.66015625 11.609375 C-4.10230469 12.06828125 -4.54445312 12.5271875 -5 13 C-5.33 13 -5.66 13 -6 13 C-5.125 6.25 -5.125 6.25 -4 4 C-4.33 3.34 -4.66 2.68 -5 2 C-3.35 1.34 -1.7 0.68 0 0 Z " fill="#ACC7CA" transform="translate(204,137)"/>
<path d="M0 0 C0.99 0 1.98 0 3 0 C3.9765625 6.0546875 3.9765625 6.0546875 4 8 C3.34 8.66 2.68 9.32 2 10 C1.67 10.66 1.34 11.32 1 12 C0.01 11.67 -0.98 11.34 -2 11 C-2.05399736 9.54207116 -2.09279177 8.08357288 -2.125 6.625 C-2.15980469 5.40683594 -2.15980469 5.40683594 -2.1953125 4.1640625 C-2 2 -2 2 0 0 Z " fill="#4B6E7C" transform="translate(126,103)"/>
<path d="M0 0 C1.32 0.33 2.64 0.66 4 1 C4.26218749 4.14624993 4.24754367 5.61837017 2.5 8.3125 C1.7575 9.1478125 1.7575 9.1478125 1 10 C-1.86724686 9.42655063 -2.8614515 9.1385485 -5 7 C-3.35 4.69 -1.7 2.38 0 0 Z " fill="#4F7889" transform="translate(202,79)"/>
<path d="M0 0 C1.6396875 0.2475 1.6396875 0.2475 3.3125 0.5 C6.87525873 1.06718184 6.87525873 1.06718184 10 1 C8.90344712 2.31886772 7.79746577 3.62990057 6.6875 4.9375 C6.07261719 5.66839844 5.45773438 6.39929688 4.82421875 7.15234375 C3 9 3 9 0 10 C0 6.7 0 3.4 0 0 Z " fill="#AED0D3" transform="translate(179,96)"/>
<path d="M0 0 C0.33 0 0.66 0 1 0 C1.05800828 3.60409919 1.09359869 7.20807851 1.125 10.8125 C1.14175781 11.83666016 1.15851563 12.86082031 1.17578125 13.91601562 C1.18222656 14.89892578 1.18867188 15.88183594 1.1953125 16.89453125 C1.20578613 17.80050049 1.21625977 18.70646973 1.22705078 19.63989258 C1 22 1 22 -1 25 C-1.99 24.34 -2.98 23.68 -4 23 C-3.67 21.68 -3.34 20.36 -3 19 C-2.34 19 -1.68 19 -1 19 C-1.01160156 18.29875 -1.02320313 17.5975 -1.03515625 16.875 C-1.08971184 11.13886898 -0.85618377 5.67221747 0 0 Z " fill="#ADBFB9" transform="translate(262,184)"/>
<path d="M0 0 C5.17609824 3.28157862 9.85989729 6.45924219 14 11 C12.35 11.33 10.7 11.66 9 12 C8.67 10.35 8.34 8.7 8 7 C7.01 7 6.02 7 5 7 C4.34 7.66 3.68 8.32 3 9 C2.34 8.34 1.68 7.68 1 7 C1.66 7 2.32 7 3 7 C1.68 5.02 0.36 3.04 -1 1 C-0.67 0.67 -0.34 0.34 0 0 Z " fill="#A4C3C8" transform="translate(143,211)"/>
<path d="M0 0 C0.33 0.66 0.66 1.32 1 2 C0.67 2.66 0.34 3.32 0 4 C0.66 4.33 1.32 4.66 2 5 C2 5.66 2 6.32 2 7 C-0.3125 9.1875 -0.3125 9.1875 -3 11 C-3.99 10.67 -4.98 10.34 -6 10 C-6.66 11.32 -7.32 12.64 -8 14 C-8 9.96618977 -6.40426438 8.50566363 -4 5.3125 C-3.2575 4.31863281 -2.515 3.32476562 -1.75 2.30078125 C-1.1725 1.54152344 -0.595 0.78226563 0 0 Z " fill="#B5D2D9" transform="translate(214,139)"/>
<path d="M0 0 C1.4727491 3.82914766 0.50018704 6.28901101 -1 10 C-1.99 11.485 -1.99 11.485 -3 13 C-3.66 13 -4.32 13 -5 13 C-5.66 14.32 -6.32 15.64 -7 17 C-7.33 16.34 -7.66 15.68 -8 15 C-6.85546875 12.28515625 -6.85546875 12.28515625 -5.1875 9.0625 C-4.64480469 8.00160156 -4.10210937 6.94070312 -3.54296875 5.84765625 C-2 3 -2 3 0 0 Z " fill="#C9D6CD" transform="translate(103,138)"/>
<path d="M0 0 C1.54897985 3.0979597 0.83239539 6.26216552 0.5625 9.625 C0.51029297 10.33140625 0.45808594 11.0378125 0.40429688 11.765625 C0.27458793 13.51079987 0.13795046 15.25545725 0 17 C-0.98742187 17.02578125 -1.97484375 17.0515625 -2.9921875 17.078125 C-4.27351563 17.13484375 -5.55484375 17.1915625 -6.875 17.25 C-8.15117187 17.29640625 -9.42734375 17.3428125 -10.7421875 17.390625 C-14.09188105 17.62555056 -14.09188105 17.62555056 -15.4453125 20.046875 C-15.62835938 20.69140625 -15.81140625 21.3359375 -16 22 C-17.125 18.25 -17.125 18.25 -16 16 C-12.83984375 15.5859375 -12.83984375 15.5859375 -8.9375 15.375 C-7.64714844 15.30023438 -6.35679687 15.22546875 -5.02734375 15.1484375 C-4.02832031 15.09945312 -3.02929688 15.05046875 -2 15 C-1.93941406 14.00097656 -1.87882812 13.00195312 -1.81640625 11.97265625 C-1.73261719 10.68230469 -1.64882813 9.39195313 -1.5625 8.0625 C-1.48128906 6.77472656 -1.40007812 5.48695312 -1.31640625 4.16015625 C-1 1 -1 1 0 0 Z " fill="#C2D4D3" transform="translate(265,86)"/>
<path d="M0 0 C2.475 0.495 2.475 0.495 5 1 C5.36923077 8.50769231 5.36923077 8.50769231 3.5 11 C3.005 11.33 2.51 11.66 2 12 C2 10.68 2 9.36 2 8 C1.67 10.31 1.34 12.62 1 15 C0.67 15 0.34 15 0 15 C0 10.05 0 5.1 0 0 Z " fill="#497483" transform="translate(265,88)"/>
<path d="M0 0 C1.32 0.66 2.64 1.32 4 2 C4 2.99 4 3.98 4 5 C3.01 5.33 2.02 5.66 1 6 C1.33 6.99 1.66 7.98 2 9 C-0.88437779 7.70700306 -2.87219421 6.34058637 -5 4 C-4.67 3.34 -4.34 2.68 -4 2 C-3.34 2 -2.68 2 -2 2 C-1.34 1.34 -0.68 0.68 0 0 Z " fill="#5A7B8C" transform="translate(111,243)"/>
<path d="M0 0 C0.99 0.66 1.98 1.32 3 2 C-1.05489233 6.27083334 -4.96318503 9.92877136 -10 13 C-9.67 11.02 -9.34 9.04 -9 7 C-8.34 7 -7.68 7 -7 7 C-6.67 6.34 -6.34 5.68 -6 5 C-5.34 5.33 -4.68 5.66 -4 6 C-4 5.34 -4 4.68 -4 4 C-3.01 4 -2.02 4 -1 4 C-0.67 2.68 -0.34 1.36 0 0 Z " fill="#6F92A3" transform="translate(239,247)"/>
<path d="M0 0 C1.32 0 2.64 0 4 0 C5.4783226 2.95664519 5.06032783 5.74229737 5 9 C4.01 8.67 3.02 8.34 2 8 C1.34 8.66 0.68 9.32 0 10 C0 6.7 0 3.4 0 0 Z " fill="#416775" transform="translate(173,52)"/>
<path d="M0 0 C1.98567708 0.55338542 3.97135417 1.10677083 5.95703125 1.66015625 C8.19244159 2.19563817 8.19244159 2.19563817 11 1 C13.1875 1.9375 13.1875 1.9375 15 3 C14.34 4.32 13.68 5.64 13 7 C3.40546697 4.29384966 3.40546697 4.29384966 0 0 Z " fill="#3C6277" transform="translate(119,256)"/>
<path d="M0 0 C1.65 0.33 3.3 0.66 5 1 C3.9024777 3.99324263 3.32317108 4.84610901 0.375 6.25 C-0.40875 6.4975 -1.1925 6.745 -2 7 C-1.67 8.98 -1.34 10.96 -1 13 C-3.3129482 10.6870518 -3.49580975 9.52095125 -4.125 6.375 C-4.29257813 5.55773437 -4.46015625 4.74046875 -4.6328125 3.8984375 C-4.75398438 3.27195313 -4.87515625 2.64546875 -5 2 C-3.515 2.99 -3.515 2.99 -2 4 C-1.01 3.67 -0.02 3.34 1 3 C0.67 2.01 0.34 1.02 0 0 Z " fill="#C6D8D4" transform="translate(93,208)"/>
<path d="M0 0 C3 1 3 1 7 3 C2.05 5.97 2.05 5.97 -3 9 C-3.33 8.01 -3.66 7.02 -4 6 C-2.625 4.5 -2.625 4.5 -1 3 C-0.34 3 0.32 3 1 3 C0.67 2.01 0.34 1.02 0 0 Z " fill="#A6C5C8" transform="translate(190,209)"/>
<path d="M0 0 C0.66 0 1.32 0 2 0 C0.26375242 6.4188547 -1.85180745 12.13784836 -5 18 C-6.4606285 15.35261084 -7 14.10551666 -7 11 C-5.68 10.67 -4.36 10.34 -3 10 C-2.814375 8.9171875 -2.814375 8.9171875 -2.625 7.8125 C-2.0095069 5.04278106 -1.11555626 2.6029646 0 0 Z " fill="#A5C8C9" transform="translate(217,114)"/>
<path d="M0 0 C1.32 0.66 2.64 1.32 4 2 C4 2.99 4 3.98 4 5 C3.01 5.33 2.02 5.66 1 6 C0.34 6.66 -0.32 7.32 -1 8 C-1.99 8 -2.98 8 -4 8 C-4.66 7.34 -5.32 6.68 -6 6 C-4.02 4.02 -2.04 2.04 0 0 Z " fill="#2A5E74" transform="translate(238,243)"/>
<path d="M0 0 C2.53449833 1.91799874 4.72226007 3.62611932 6.625 6.1875 C7.95882513 8.29998833 7.95882513 8.29998833 11 9 C11 9.99 11 10.98 11 12 C6.95838045 10.65515286 4.61321846 8.9494838 1.6875 5.875 C0.99011719 5.15054688 0.29273438 4.42609375 -0.42578125 3.6796875 C-0.94527344 3.12539062 -1.46476563 2.57109375 -2 2 C-1.34 1.34 -0.68 0.68 0 0 Z " fill="#A4C5CC" transform="translate(161,156)"/>
<path d="M0 0 C1.32 0 2.64 0 4 0 C4.33 4.62 4.66 9.24 5 14 C5.99 13.67 6.98 13.34 8 13 C8 13.66 8 14.32 8 15 C8.66 15.33 9.32 15.66 10 16 C8.35 16.33 6.7 16.66 5 17 C2.57869669 13.36804504 2.78977215 11.61650652 2.875 7.3125 C2.90207031 5.54326172 2.90207031 5.54326172 2.9296875 3.73828125 C2.96449219 2.38283203 2.96449219 2.38283203 3 1 C2.01 0.67 1.02 0.34 0 0 Z " fill="#ACC3C5" transform="translate(261,109)"/>
<path d="M0 0 C1.32 0.66 2.64 1.32 4 2 C3.67 3.32 3.34 4.64 3 6 C-0.11257569 6 -2.10765685 5.82638376 -5 5 C-3.35 3.35 -1.7 1.7 0 0 Z " fill="#3E6B77" transform="translate(253,199)"/>
<path d="M0 0 C2.20914 3.31371 2.22481553 4.3446021 2.125 8.1875 C2.10695312 9.08855469 2.08890625 9.98960937 2.0703125 10.91796875 C2.03550781 11.94857422 2.03550781 11.94857422 2 13 C1.01 13 0.02 13 -1 13 C-1.02686553 11.02090602 -1.04633375 9.04171029 -1.0625 7.0625 C-1.07410156 5.96035156 -1.08570313 4.85820312 -1.09765625 3.72265625 C-1 1 -1 1 0 0 Z " fill="#31657E" transform="translate(175,285)"/>
<path d="M0 0 C-0.33 1.65 -0.66 3.3 -1 5 C-4.75 6.125 -4.75 6.125 -7 5 C-7 3.35 -7 1.7 -7 0 C-3.98968256 -0.93423645 -3.13349732 -1.04449911 0 0 Z " fill="#376477" transform="translate(209,265)"/>
<path d="M0 0 C2.00720923 0.28674418 4.0085944 0.61866701 6 1 C5 4 5 4 4 5 C4.66 5.66 5.32 6.32 6 7 C5.01 7.33 4.02 7.66 3 8 C1.35 6.35 -0.3 4.7 -2 3 C-1 1 -1 1 0 0 Z " fill="#AAC6C5" transform="translate(138,226)"/>
<path d="M0 0 C0.33 0.66 0.66 1.32 1 2 C0.34 2.66 -0.32 3.32 -1 4 C-1.33 4.66 -1.66 5.32 -2 6 C-1.34 6.33 -0.68 6.66 0 7 C-0.33 7.66 -0.66 8.32 -1 9 C-2.32 9 -3.64 9 -5 9 C-5.33 8.34 -5.66 7.68 -6 7 C-7.98 7.99 -7.98 7.99 -10 9 C-7.12505529 5.01930733 -4.17882671 2.56428003 0 0 Z " fill="#B4D1D7" transform="translate(214,206)"/>
<path d="M0 0 C-1.51671964 4.55015893 -5.16891053 6.50057264 -9 9 C-9 4.75105275 -8.82602292 3.92695231 -6 1 C-3.85612525 0.22040918 -2.27249091 0 0 0 Z " fill="#9FC1C3" transform="translate(248,204)"/>
<path d="M0 0 C0 3 0 3 -1.53125 4.82421875 C-2.1809375 5.43910156 -2.830625 6.05398437 -3.5 6.6875 C-4.1496875 7.31011719 -4.799375 7.93273437 -5.46875 8.57421875 C-5.9740625 9.04472656 -6.479375 9.51523438 -7 10 C-7.99 9.67 -8.98 9.34 -10 9 C-9.34 8.67 -8.68 8.34 -8 8 C-7.34786708 5.97536745 -7.34786708 5.97536745 -7 4 C-6.01 4 -5.02 4 -4 4 C-3.67 3.01 -3.34 2.02 -3 1 C-2.01 0.67 -1.02 0.34 0 0 Z " fill="#A3C8CC" transform="translate(212,197)"/>
<path d="M0 0 C3.69230769 0.69230769 3.69230769 0.69230769 5 2 C5.04063832 3.66617115 5.042721 5.33388095 5 7 C2.525 6.01 2.525 6.01 0 5 C0 7.64 0 10.28 0 13 C-0.33 13 -0.66 13 -1 13 C-1.02686553 11.02090602 -1.04633375 9.04171029 -1.0625 7.0625 C-1.07410156 5.96035156 -1.08570312 4.85820312 -1.09765625 3.72265625 C-1 1 -1 1 0 0 Z " fill="#466B79" transform="translate(106,139)"/>
<path d="M0 0 C1.65 1.65 3.3 3.3 5 5 C3.68 5.99 2.36 6.98 1 8 C0.34 7.34 -0.32 6.68 -1 6 C-3.06874034 5.3574765 -3.06874034 5.3574765 -5 5 C-3.35 3.35 -1.7 1.7 0 0 Z " fill="#436D81" transform="translate(198,150)"/>
<path d="M0 0 C0.33 0.99 0.66 1.98 1 3 C1.66 3.33 2.32 3.66 3 4 C2.25 5.9375 2.25 5.9375 1 8 C-1.125 8.75 -1.125 8.75 -3 9 C-3.75 6.75 -3.75 6.75 -4 4 C-2.0625 1.6875 -2.0625 1.6875 0 0 Z " fill="#356577" transform="translate(203,145)"/>
<path d="M0 0 C0 3.96 0 7.92 0 12 C-0.33 12 -0.66 12 -1 12 C-1.1953125 9.94921875 -1.390625 7.8984375 -1.5859375 5.84765625 C-1.72257813 5.23792969 -1.85921875 4.62820312 -2 4 C-2.66 3.67 -3.32 3.34 -4 3 C-4.33 3.99 -4.66 4.98 -5 6 C-5.33 4.02 -5.66 2.04 -6 0 C-4 -1 -4 -1 0 0 Z " fill="#49707F" transform="translate(244,140)"/>
<path d="M0 0 C2.475 0.495 2.475 0.495 5 1 C5 5.95 5 10.9 5 16 C4.34 16.33 3.68 16.66 3 17 C3.33 12.38 3.66 7.76 4 3 C2.68 3.33 1.36 3.66 0 4 C0 2.68 0 1.36 0 0 Z " fill="#41616D" transform="translate(266,86)"/>
<path d="M0 0 C1.65 0.33 3.3 0.66 5 1 C4.34 2.32 3.68 3.64 3 5 C2.01 5 1.02 5 0 5 C-1.87494564 6.08026513 -1.87494564 6.08026513 -3.6875 7.5 C-4.31011719 7.9640625 -4.93273437 8.428125 -5.57421875 8.90625 C-6.04472656 9.2671875 -6.51523438 9.628125 -7 10 C-5.33248852 6.05860922 -2.77289351 3.2107188 0 0 Z " fill="#CDDBD4" transform="translate(138,88)"/>
<path d="M0 0 C4.875 1.75 4.875 1.75 6 4 C6.039992 5.99960012 6.04346799 8.00047242 6 10 C1.77202073 6.91709845 1.77202073 6.91709845 0 5 C-0.375 2.1875 -0.375 2.1875 0 0 Z " fill="#A2C4C9" transform="translate(166,249)"/>
<path d="M0 0 C-1.74843118 1.12743666 -3.4988094 2.2518542 -5.25 3.375 C-6.22453125 4.00148437 -7.1990625 4.62796875 -8.203125 5.2734375 C-10.43521615 6.65134852 -12.63087422 7.88312642 -15 9 C-15 8.01 -15 7.02 -15 6 C-12 4 -12 4 -8 4 C-7.67 3.01 -7.34 2.02 -7 1 C-4.05697101 -0.96201933 -3.48011144 -1.16003715 0 0 Z " fill="#9CBFC3" transform="translate(224,225)"/>
<path d="M0 0 C3.9670255 1.32234183 6.19774087 2.91751495 9 6 C9.5775 6.5775 10.155 7.155 10.75 7.75 C11.1625 8.1625 11.575 8.575 12 9 C7.2292071 8.56629155 3.36635741 6.35665609 0 3 C0 2.01 0 1.02 0 0 Z " fill="#A4C5CA" transform="translate(120,217)"/>
<path d="M0 0 C0.66 0.33 1.32 0.66 2 1 C-2.49865471 7.5264574 -2.49865471 7.5264574 -6.1796875 8.6875 C-8.375 8.9375 -8.375 8.9375 -12 9 C-8.63378119 5.21300384 -4.58358196 2.1727369 0 0 Z " fill="#B6D2DA" transform="translate(202,215)"/>
<path d="M0 0 C1.74965358 -0.05429959 3.49979787 -0.09292823 5.25 -0.125 C6.22453125 -0.14820313 7.1990625 -0.17140625 8.203125 -0.1953125 C11.094188 0.00657737 12.53830255 0.5453606 15 2 C15.7425 2.37125 16.485 2.7425 17.25 3.125 C17.8275 3.41375 18.405 3.7025 19 4 C12.4491015 3.54240047 6.3246158 2.7899856 0 1 C0 0.67 0 0.34 0 0 Z " fill="#A0B6BB" transform="translate(145,271)"/>
<path d="M0 0 C0 0.66 0 1.32 0 2 C0.66 2.33 1.32 2.66 2 3 C-1.3 3.33 -4.6 3.66 -8 4 C-8 3.01 -8 2.02 -8 1 C-5.29120665 -0.35439668 -2.99066732 -0.06501451 0 0 Z " fill="#335F75" transform="translate(196,268)"/>
<path d="M0 0 C1.78198477 3.30710686 2.96157065 6.68214999 4.125 10.25 C4.47820312 11.32765625 4.83140625 12.4053125 5.1953125 13.515625 C5.46085937 14.33546875 5.72640625 15.1553125 6 16 C5.34 16.33 4.68 16.66 4 17 C0.28343453 13.28343453 0.0533414 7.52022996 -0.125 2.4375 C-0.08375 1.633125 -0.0425 0.82875 0 0 Z " fill="#A6C6CC" transform="translate(106,157)"/>
<path d="M0 0 C4.42857143 5.14285714 4.42857143 5.14285714 5 9 C3.0625 8.6875 3.0625 8.6875 1 8 C0.67 7.01 0.34 6.02 0 5 C-0.99 5.495 -0.99 5.495 -2 6 C-2 4.35 -2 2.7 -2 1 C-1.34 0.67 -0.68 0.34 0 0 Z " fill="#C4D2CF" transform="translate(246,136)"/>
<path d="M0 0 C0.33 1.98 0.66 3.96 1 6 C0.01 6.66 -0.98 7.32 -2 8 C-2.33 6.68 -2.66 5.36 -3 4 C-4.32 4.33 -5.64 4.66 -7 5 C-2.25 0 -2.25 0 0 0 Z " fill="#436C84" transform="translate(247,208)"/>
<path d="M0 0 C1.17825358 0.90172468 2.34231577 1.82201502 3.5 2.75 C4.1496875 3.26046875 4.799375 3.7709375 5.46875 4.296875 C7 6 7 6 7 10 C6.34 10 5.68 10 5 10 C5 9.34 5 8.68 5 8 C4.34 8 3.68 8 3 8 C2.67 6.35 2.34 4.7 2 3 C1.34 3 0.68 3 0 3 C0 2.01 0 1.02 0 0 Z " fill="#375F72" transform="translate(132,194)"/>
<path d="M0 0 C0.66 0.33 1.32 0.66 2 1 C1.66226563 1.66386719 1.32453125 2.32773438 0.9765625 3.01171875 C0.30753906 4.33623047 0.30753906 4.33623047 -0.375 5.6875 C-0.81585938 6.55761719 -1.25671875 7.42773438 -1.7109375 8.32421875 C-2.92664268 10.84772799 -3.99260958 13.38737532 -5 16 C-5.66 16 -6.32 16 -7 16 C-5.35433477 10.31497465 -2.70967216 5.23318364 0 0 Z " fill="#B4D7E1" transform="translate(222,123)"/>
<path d="M0 0 C0.66 0.33 1.32 0.66 2 1 C2 3 2 3 -0.375 5.625 C-3 8 -3 8 -5 8 C-5 8.66 -5 9.32 -5 10 C-6.98 10.99 -6.98 10.99 -9 12 C-7.55575365 8.76138697 -5.74227753 6.38030837 -3.375 3.75 C-2.74335938 3.04359375 -2.11171875 2.3371875 -1.4609375 1.609375 C-0.97882813 1.07828125 -0.49671875 0.5471875 0 0 Z " fill="#AFD0DA" transform="translate(257,202)"/>
<path d="M0 0 C2.5 1.375 2.5 1.375 5 3 C5 3.66 5 4.32 5 5 C3.02 5.33 1.04 5.66 -1 6 C-1.66 5.01 -2.32 4.02 -3 3 C-2.01 2.01 -1.02 1.02 0 0 Z " fill="#376171" transform="translate(146,207)"/>
<path d="M0 0 C1.14926266 0.95421808 2.29430541 1.91352045 3.4375 2.875 C4.07558594 3.40867188 4.71367187 3.94234375 5.37109375 4.4921875 C7 6 7 6 8 8 C6.68 8.33 5.36 8.66 4 9 C1.525 5.04 1.525 5.04 -1 1 C-0.67 0.67 -0.34 0.34 0 0 Z " fill="#A6C5CE" transform="translate(126,196)"/>
<path d="M0 0 C2.875 0.25 2.875 0.25 6 1 C7.4375 2.875 7.4375 2.875 8 5 C7.67 5.99 7.34 6.98 7 8 C5.83035398 6.8572081 4.66435444 5.71068285 3.5 4.5625 C2.8503125 3.92441406 2.200625 3.28632813 1.53125 2.62890625 C0 1 0 1 0 0 Z " fill="#9FBFC7" transform="translate(133,194)"/>
<path d="M0 0 C0.33 0.99 0.66 1.98 1 3 C1.2475 3.66 1.495 4.32 1.75 5 C1.8325 5.66 1.915 6.32 2 7 C0.5625 8.75 0.5625 8.75 -1 10 C-2.31223496 6.06329512 -1.24296256 3.87511856 0 0 Z M3 3 C3.66 3.33 4.32 3.66 5 4 C4.67 5.32 4.34 6.64 4 8 C4 7.34 4 6.68 4 6 C3.34 6 2.68 6 2 6 C2.33 5.01 2.66 4.02 3 3 Z " fill="#416C82" transform="translate(238,150)"/>
<path d="M0 0 C0.99 1.32 1.98 2.64 3 4 C0 5 0 5 -2 5 C-2.33 6.32 -2.66 7.64 -3 9 C-4.32 8.34 -5.64 7.68 -7 7 C-4.69 4.69 -2.38 2.38 0 0 Z " fill="#D7E0D8" transform="translate(154,71)"/>
<path d="M0 0 C1.98 0.66 3.96 1.32 6 2 C5.34 3.32 4.68 4.64 4 6 C3.01 6 2.02 6 1 6 C0.34 4.35 -0.32 2.7 -1 1 C-0.67 0.67 -0.34 0.34 0 0 Z " fill="#4C788B" transform="translate(240,241)"/>
<path d="M0 0 C1 3 1 3 0.22265625 4.82421875 C-0.8515625 6.54947917 -1.92578125 8.27473958 -3 10 C-3.66 9.34 -4.32 8.68 -5 8 C-4.67 7.34 -4.34 6.68 -4 6 C-4.66 6 -5.32 6 -6 6 C-6 5.34 -6 4.68 -6 4 C-5.01 4 -4.02 4 -3 4 C-2.67 3.34 -2.34 2.68 -2 2 C-1.34 2 -0.68 2 0 2 C0 1.34 0 0.68 0 0 Z " fill="#C0D2D0" transform="translate(257,222)"/>
<path d="M0 0 C0.99 0.66 1.98 1.32 3 2 C1.5682384 2.69937202 0.12932968 3.38412718 -1.3125 4.0625 C-2.51326172 4.63677734 -2.51326172 4.63677734 -3.73828125 5.22265625 C-6 6 -6 6 -9 5 C-8.34 5 -7.68 5 -7 5 C-6.67 4.01 -6.34 3.02 -6 2 C-3.125 0.6875 -3.125 0.6875 0 0 Z " fill="#77949F" transform="translate(215,265)"/>
<path d="M0 0 C2.125 0.375 2.125 0.375 4 1 C1.03 3.475 1.03 3.475 -2 6 C-3.32 5.34 -4.64 4.68 -6 4 C-5.38125 3.71125 -4.7625 3.4225 -4.125 3.125 C-1.86674235 2.06279958 -1.86674235 2.06279958 0 0 Z " fill="#9FC2C5" transform="translate(203,235)"/>
<path d="M0 0 C3.057952 1.73559438 5.63379989 3.38472619 8 6 C7.67 6.99 7.34 7.98 7 9 C3.26115668 6.34345343 1.35021826 4.41889613 0 0 Z " fill="#A5C6CB" transform="translate(160,167)"/>
<path d="M0 0 C1.65 0 3.3 0 5 0 C5.33 1.32 5.66 2.64 6 4 C5.01 4.66 4.02 5.32 3 6 C1.5 4.6875 1.5 4.6875 0 3 C0 2.01 0 1.02 0 0 Z " fill="#336074" transform="translate(108,161)"/>
<path d="M0 0 C0.66 0 1.32 0 2 0 C2.67119549 1.4562545 3.33681807 2.91507867 4 4.375 C4.556875 5.59316406 4.556875 5.59316406 5.125 6.8359375 C6 9 6 9 6 11 C5.01 10.67 4.02 10.34 3 10 C1.25327015 6.5065403 0 3.93154432 0 0 Z " fill="#ACCCD3" transform="translate(114,160)"/>
<path d="M0 0 C3.40320742 1.01176437 4.75725331 1.64843582 6.8125 4.625 C7.204375 5.40875 7.59625 6.1925 8 7 C7.34 7 6.68 7 6 7 C5.67 7.66 5.34 8.32 5 9 C3.35 6.03 1.7 3.06 0 0 Z M6 3 C8 4 8 4 8 4 Z " fill="#ACC9CE" transform="translate(140,134)"/>
<path d="M0 0 C0.99 0.99 1.98 1.98 3 3 C1.68 4.32 0.36 5.64 -1 7 C-1.99 5.35 -2.98 3.7 -4 2 C-2.68 1.34 -1.36 0.68 0 0 Z " fill="#3E6276" transform="translate(109,240)"/>
<path d="M0 0 C2.79872437 2.52788007 4.45773019 4.20411134 5 8 C4.01 8.33 3.02 8.66 2 9 C0 7 0 7 -0.125 3.375 C-0.08375 2.26125 -0.0425 1.1475 0 0 Z " fill="#366073" transform="translate(143,235)"/>
<path d="M0 0 C1.32 0 2.64 0 4 0 C4.99 1.98 5.98 3.96 7 6 C5.68 6 4.36 6 3 6 C2.67 5.01 2.34 4.02 2 3 C1.34 2.67 0.68 2.34 0 2 C0 1.34 0 0.68 0 0 Z " fill="#356073" transform="translate(120,223)"/>
<path d="M0 0 C-1.49097658 3.7952131 -3.75700849 5.61042731 -7 8 C-6.65930765 4.84859577 -6.41923159 3.39218439 -4.0625 1.1875 C-2 0 -2 0 0 0 Z " fill="#487486" transform="translate(220,199)"/>
<path d="M0 0 C1.65 0.33 3.3 0.66 5 1 C5.33 1.99 5.66 2.98 6 4 C5.34 4 4.68 4 4 4 C3.67 4.66 3.34 5.32 3 6 C1.68 4.68 0.36 3.36 -1 2 C-0.67 1.34 -0.34 0.68 0 0 Z " fill="#3A6575" transform="translate(152,90)"/>
<path d="M0 0 C0.99 0.99 1.98 1.98 3 3 C2.34 4.32 1.68 5.64 1 7 C-0.65 7 -2.3 7 -4 7 C-2.68 4.69 -1.36 2.38 0 0 Z " fill="#386273" transform="translate(202,79)"/>
<path d="M0 0 C0.33 0.66 0.66 1.32 1 2 C0.67 2.66 0.34 3.32 0 4 C1.32 4.66 2.64 5.32 4 6 C3.01 6.66 2.02 7.32 1 8 C0.67 7.34 0.34 6.68 0 6 C-2.02463255 5.34786708 -2.02463255 5.34786708 -4 5 C-4 4.34 -4 3.68 -4 3 C-2 1.375 -2 1.375 0 0 Z " fill="#49758A" transform="translate(225,254)"/>
<path d="M0 0 C0.99 0 1.98 0 3 0 C3.66 1.98 4.32 3.96 5 6 C4.01 6.33 3.02 6.66 2 7 C1.67 6.34 1.34 5.68 1 5 C0.01 4.67 -0.98 4.34 -2 4 C-2 3.34 -2 2.68 -2 2 C-1.34 2 -0.68 2 0 2 C0 1.34 0 0.68 0 0 Z " fill="#3B6274" transform="translate(114,247)"/>
<path d="M0 0 C2.375 0.3125 2.375 0.3125 5 1 C5.66 1.99 6.32 2.98 7 4 C6.34 4 5.68 4 5 4 C5 4.66 5 5.32 5 6 C4.01 5.67 3.02 5.34 2 5 C2 4.01 2 3.02 2 2 C1.34 2 0.68 2 0 2 C0 1.34 0 0.68 0 0 Z " fill="#3A6276" transform="translate(151,243)"/>
<path d="M0 0 C2 0.3125 2 0.3125 4 1 C4.33 1.66 4.66 2.32 5 3 C4.360625 3.103125 3.72125 3.20625 3.0625 3.3125 C2.381875 3.539375 1.70125 3.76625 1 4 C0.67 4.99 0.34 5.98 0 7 C-0.66 6.34 -1.32 5.68 -2 5 C-1.46428571 1.46428571 -1.46428571 1.46428571 0 0 Z " fill="#4F747E" transform="translate(95,199)"/>
<path d="M0 0 C2.9375 0.8125 2.9375 0.8125 6 2 C6.33 2.99 6.66 3.98 7 5 C6.34 5.66 5.68 6.32 5 7 C4.34 6.34 3.68 5.68 3 5 C2.01 4.67 1.02 4.34 0 4 C0 2.68 0 1.36 0 0 Z " fill="#325E76" transform="translate(113,171)"/>
<path d="M0 0 C0.66666667 2.66666667 1.33333333 5.33333333 2 8 C1.01 8.66 0.02 9.32 -1 10 C-1.66 10.99 -2.32 11.98 -3 13 C-2.45144652 8.428721 -1.58255197 4.32564205 0 0 Z " fill="#D8E0D7" transform="translate(92,160)"/>
<path d="M0 0 C0.66 0 1.32 0 2 0 C3.25664978 2.90600261 4 4.79604584 4 8 C2.02 6.35 0.04 4.7 -2 3 C-1.34 2.67 -0.68 2.34 0 2 C0 1.34 0 0.68 0 0 Z " fill="#ABCACC" transform="translate(155,149)"/>
<path d="M0 0 C2.99324263 1.0975223 3.84610901 1.67682892 5.25 4.625 C5.4975 5.40875 5.745 6.1925 6 7 C3.50638429 5.79618552 1.31856917 4.54571278 -1 3 C-0.67 2.01 -0.34 1.02 0 0 Z " fill="#B4D1D6" transform="translate(139,146)"/>
<path d="M0 0 C0.99 0 1.98 0 3 0 C5.1519437 3.22791555 5.20086443 4.28400809 5 8 C4.67 6.68 4.34 5.36 4 4 C3.01 4 2.02 4 1 4 C0.67 4.99 0.34 5.98 0 7 C0 4.69 0 2.38 0 0 Z " fill="#446573" transform="translate(221,103)"/>
<path d="M0 0 C0.99 0.33 1.98 0.66 3 1 C3 1.66 3 2.32 3 3 C4.32 3.66 5.64 4.32 7 5 C7 5.99 7 6.98 7 8 C3.64379729 6.61122646 1.92701272 5.08322035 0 2 C0 1.34 0 0.68 0 0 Z " fill="#B4D2D7" transform="translate(151,82)"/>
<path d="M0 0 C0.99 0 1.98 0 3 0 C2.67 2.64 2.34 5.28 2 8 C1.01 7.67 0.02 7.34 -1 7 C-1.04254356 5.00045254 -1.04080783 2.99958364 -1 1 C-0.67 0.67 -0.34 0.34 0 0 Z " fill="#5E7982" transform="translate(146,79)"/>
<path d="M0 0 C2.31 1.98 4.62 3.96 7 6 C6.34 6.66 5.68 7.32 5 8 C4.54625 7.505 4.0925 7.01 3.625 6.5 C2.12364481 4.77390663 2.12364481 4.77390663 0 5 C0 3.35 0 1.7 0 0 Z " fill="#ADCCD0" transform="translate(98,209)"/>
<path d="M0 0 C2.99332739 0.9977758 3.94766315 1.7522025 6 4 C5.67 4.66 5.34 5.32 5 6 C3.35 6 1.7 6 0 6 C0 4.02 0 2.04 0 0 Z " fill="#355F71" transform="translate(166,166)"/>
<path d="M0 0 C0.99 0.99 1.98 1.98 3 3 C2.01 4.98 1.02 6.96 0 9 C-1.125 7.3125 -1.125 7.3125 -2 5 C-1.125 2.25 -1.125 2.25 0 0 Z " fill="#3C6D82" transform="translate(215,130)"/>
<path d="M0 0 C2.46800047 1.15173355 4.04783565 2.04783565 6 4 C4.625 5.5 4.625 5.5 3 7 C2.34 7 1.68 7 1 7 C1.33 5.35 1.66 3.7 2 2 C1.01 1.67 0.02 1.34 -1 1 C-0.67 0.67 -0.34 0.34 0 0 Z " fill="#446F81" transform="translate(187,98)"/>
<path d="M0 0 C6.52307692 1.35384615 6.52307692 1.35384615 8.9375 4.625 C9.288125 5.40875 9.63875 6.1925 10 7 C5.56541027 5.6062718 3.12621626 3.39417765 0 0 Z " fill="#A6B7BE" transform="translate(120,258)"/>
<path d="M0 0 C0.598125 0.309375 1.19625 0.61875 1.8125 0.9375 C4.08956772 2.10209704 4.08956772 2.10209704 7 3 C4.525 4.485 4.525 4.485 2 6 C1.01 5.01 0.02 4.02 -1 3 C-0.67 2.01 -0.34 1.02 0 0 Z " fill="#446E82" transform="translate(189,249)"/>
<path d="M0 0 C1.98 0.99 3.96 1.98 6 3 C5.34 4.65 4.68 6.3 4 8 C3.67 6.68 3.34 5.36 3 4 C1.68 4 0.36 4 -1 4 C-0.67 2.68 -0.34 1.36 0 0 Z " fill="#416F82" transform="translate(230,174)"/>
<path d="M0 0 C2.64465038 3.1254959 3.84414715 6.08788267 5 10 C4.34 10 3.68 10 3 10 C3 9.34 3 8.68 3 8 C2.34 8 1.68 8 1 8 C0.67 5.36 0.34 2.72 0 0 Z " fill="#CDD7D3" transform="translate(251,145)"/>
<path d="M0 0 C2.64 0 5.28 0 8 0 C8.33 0.66 8.66 1.32 9 2 C7.02 2.99 5.04 3.98 3 5 C2.01 3.35 1.02 1.7 0 0 Z " fill="#46707F" transform="translate(147,88)"/>
<path d="M0 0 C0.66 0 1.32 0 2 0 C2 0.66 2 1.32 2 2 C2.99 2 3.98 2 5 2 C5.33 2.99 5.66 3.98 6 5 C3.69 4.67 1.38 4.34 -1 4 C-0.67 2.68 -0.34 1.36 0 0 Z " fill="#33617A" transform="translate(142,264)"/>
<path d="M0 0 C1 3 1 3 0.0625 5.1875 C-0.4634375 6.0846875 -0.4634375 6.0846875 -1 7 C-2.32 6.01 -3.64 5.02 -5 4 C-4.67 3.34 -4.34 2.68 -4 2 C-3.34 2 -2.68 2 -2 2 C-1.34 1.34 -0.68 0.68 0 0 Z " fill="#75919F" transform="translate(111,243)"/>
<path d="M0 0 C2.97 0.495 2.97 0.495 6 1 C5.67 2.32 5.34 3.64 5 5 C3.02 4.01 1.04 3.02 -1 2 C-0.67 1.34 -0.34 0.68 0 0 Z " fill="#A1C3CC" transform="translate(166,217)"/>
<path d="M0 0 C-0.33 0.99 -0.66 1.98 -1 3 C-2.65 3.33 -4.3 3.66 -6 4 C-6.33 2.68 -6.66 1.36 -7 0 C-4.3333581 -1.33332095 -2.83319697 -0.67102033 0 0 Z " fill="#336276" transform="translate(195,218)"/>
<path d="M0 0 C0.66 0.99 1.32 1.98 2 3 C1.34 3.66 0.68 4.32 0 5 C-0.99 5 -1.98 5 -3 5 C-5.15028304 5.94978897 -5.15028304 5.94978897 -7 7 C-4.78071806 4.09197539 -3.07030857 2.04687238 0 0 Z " fill="#B4D7DE" transform="translate(247,214)"/>
<path d="M0 0 C1.32 0 2.64 0 4 0 C2.70700306 2.88437779 1.34058637 4.87219421 -1 7 C-1.66 6.67 -2.32 6.34 -3 6 C-2 4 -1 2 0 0 Z " fill="#A4C0C4" transform="translate(221,198)"/>
<path d="M0 0 C2.49361571 1.20381448 4.68143083 2.45428722 7 4 C7.33 3.34 7.66 2.68 8 2 C7.67 3.98 7.34 5.96 7 8 C4.35247996 5.42215154 2.05567935 3.08351902 0 0 Z " fill="#ADCBD2" transform="translate(146,143)"/>
<path d="M0 0 C2.5 2.3125 2.5 2.3125 5 5 C5 5.99 5 6.98 5 8 C4.01 8 3.02 8 2 8 C1.34 5.36 0.68 2.72 0 0 Z " fill="#C2D9D7" transform="translate(224,103)"/>
<path d="M0 0 C2.125 0.9375 2.125 0.9375 4 2 C3.01 3.485 3.01 3.485 2 5 C0.68 4.34 -0.64 3.68 -2 3 C-2 2.34 -2 1.68 -2 1 C-1.34 0.67 -0.68 0.34 0 0 Z " fill="#3B6173" transform="translate(161,98)"/>
<path d="M0 0 C2.625 0.9375 2.625 0.9375 5 2 C5 2.66 5 3.32 5 4 C2.36 4 -0.28 4 -3 4 C-2.67 3.01 -2.34 2.02 -2 1 C-1.34 0.67 -0.68 0.34 0 0 Z " fill="#416D82" transform="translate(205,206)"/>
<path d="M0 0 C2.625 0.375 2.625 0.375 5 1 C4.67 1.99 4.34 2.98 4 4 C3.01 4.33 2.02 4.66 1 5 C0.67 4.34 0.34 3.68 0 3 C-0.66 2.67 -1.32 2.34 -2 2 C-1.34 1.34 -0.68 0.68 0 0 Z " fill="#B8D2D1" transform="translate(105,202)"/>
<path d="M0 0 C0.33 0.66 0.66 1.32 1 2 C1.99 2 2.98 2 4 2 C4 2.66 4 3.32 4 4 C4.66 4.33 5.32 4.66 6 5 C5.01 5.66 4.02 6.32 3 7 C0 3.375 0 3.375 0 0 Z " fill="#A5C4C8" transform="translate(99,198)"/>
<path d="M0 0 C2 3 2 3 2 5 C-0.97 4.505 -0.97 4.505 -4 4 C-3.67 3.01 -3.34 2.02 -3 1 C-2.01 0.67 -1.02 0.34 0 0 Z " fill="#3B6B83" transform="translate(238,163)"/>
<path d="M0 0 C1 2 1 2 0.875 4.5 C0 7 0 7 -2.5625 8.3125 C-3.7690625 8.6528125 -3.7690625 8.6528125 -5 9 C-3.7508258 5.54074837 -2.32472205 2.85306797 0 0 Z " fill="#D7E0D5" transform="translate(115,118)"/>
<path d="M0 0 C4.875 3.625 4.875 3.625 6 7 C5.34 7 4.68 7 4 7 C4 6.34 4 5.68 4 5 C2.68 5.33 1.36 5.66 0 6 C0 4.02 0 2.04 0 0 Z " fill="#CEDBD7" transform="translate(206,82)"/>
<path d="M0 0 C0 3 0 3 -1 5 C-1.66 5 -2.32 5 -3 5 C-3.33 5.99 -3.66 6.98 -4 8 C-4.66 8 -5.32 8 -6 8 C-4.55746343 4.63408134 -2.66735273 2.48952921 0 0 Z " fill="#ACD0D9" transform="translate(185,261)"/>
<path d="M0 0 C2.0625 0.4375 2.0625 0.4375 4 1 C4 1.99 4 2.98 4 4 C4.66 4.33 5.32 4.66 6 5 C3.625 4.6875 3.625 4.6875 1 4 C0.34 3.01 -0.32 2.02 -1 1 C-0.67 0.67 -0.34 0.34 0 0 Z " fill="#A7C7CC" transform="translate(128,186)"/>
<path d="M0 0 C0.66 0.33 1.32 0.66 2 1 C1.34 3.31 0.68 5.62 0 8 C-0.33 7.34 -0.66 6.68 -1 6 C-1.99 5.67 -2.98 5.34 -4 5 C-2.68 3.35 -1.36 1.7 0 0 Z " fill="#D1E0DC" transform="translate(171,53)"/>
</svg>
